<svg width="50" height="40" fill="none" xmlns="http://www.w3.org/2000/svg"><path d="M43.178 10.633c-3.279 0-5.947 2.716-5.947 6.053v8c0 .216.172.39.384.39a.387.387 0 00.384-.39v-8c0-2.907 2.323-5.271 5.179-5.271 2.863 0 5.192 2.364 5.192 5.27 0 2.087-1.069 3.849-2.86 4.714a.39.39 0 00-.219.353v8.792c0 .216.172.39.384.39a.387.387 0 00.384-.39v-8.552c1.905-1.022 3.079-3.033 3.079-5.306 0-3.338-2.674-6.053-5.96-6.053zm-9.4 24.597H8.438c-2.535 0-4.597-2.07-4.597-4.616v-8.862a.39.39 0 00-.219-.353C1.835 20.535.768 18.773.768 16.686c0-2.907 2.325-5.271 5.182-5.271 2.859 0 5.184 2.364 5.184 5.27v8.001c0 .216.171.39.383.39a.387.387 0 00.384-.39v-8c0-3.338-2.67-6.053-5.95-6.053C2.668 10.633 0 13.35 0 16.686c0 2.31 1.144 4.276 3.074 5.307v8.62c0 2.977 2.406 5.399 5.363 5.399h25.34a.387.387 0 00.384-.39.387.387 0 00-.383-.391z" fill="#000"/><path d="M45.651 30.198a.387.387 0 00-.384.39c0 2.56-2.046 4.643-4.563 4.643h-3.089a.387.387 0 00-.384.39c0 .216.172.39.384.39h3.09c2.939 0 5.33-2.432 5.33-5.422a.387.387 0 00-.384-.39zm-9.271-7.464H12.754c-.893 0-1.62.74-1.62 1.648v3.733c0 .909.727 1.648 1.62 1.648H36.38c.894 0 1.62-.74 1.62-1.648v-3.732c0-.91-.726-1.65-1.62-1.65zm.852 5.38a.861.861 0 01-.852.868H12.754a.861.861 0 01-.853-.867v-3.732c0-.479.383-.868.853-.868H36.38c.47 0 .853.39.853.867v3.733z" fill="#000"/><path d="M42.605 34.84a.387.387 0 00-.383.39v2.662a.842.842 0 01-.85.853H7.77a.857.857 0 01-.858-.853V35.23a.387.387 0 00-.384-.39.387.387 0 00-.383.39v2.66c0 .902.729 1.636 1.625 1.636h33.603c.891 0 1.616-.734 1.616-1.635V35.23a.387.387 0 00-.384-.39zM35.362.474H13.828c-4.448 0-8.067 3.678-8.067 8.2v2.344c0 .215.172.39.384.39a.387.387 0 00.383-.39V8.675c0-4.092 3.275-7.42 7.3-7.42h21.534c3.994 0 7.243 3.328 7.243 7.42v2.343c0 .215.172.39.384.39a.387.387 0 00.384-.39V8.675c0-4.523-3.594-8.201-8.011-8.201z" fill="#000"/><path d="M31.09 2.426h-1.918a.387.387 0 00-.384.39c0 .216.172.391.384.391h1.919a.387.387 0 00.384-.39.387.387 0 00-.384-.39zM39.4 3.97a6.073 6.073 0 00-4.038-1.544l-.025.001h-2.711a.387.387 0 00-.384.39c0 .215.172.39.384.39h2.736a5.31 5.31 0 013.532 1.352.38.38 0 00.542-.038.395.395 0 00-.036-.55zM4.036 13.087a4.114 4.114 0 00-2.1 3.598c0 .216.171.391.383.391a.387.387 0 00.384-.39c0-1.213.652-2.33 1.702-2.914a.394.394 0 00.152-.53.38.38 0 00-.52-.155zm3.819-.021a3.977 3.977 0 00-1.891-.48.387.387 0 00-.384.39c0 .216.172.39.384.39a3.21 3.21 0 011.53.39.382.382 0 00.52-.16.395.395 0 00-.159-.53z" fill="#000"/></svg>