<svg width="50" height="34" fill="none" xmlns="http://www.w3.org/2000/svg"><path d="M48.047 17.977H1.953A1.955 1.955 0 000 19.93v2.343a.39.39 0 10.781 0V19.93c0-.646.526-1.172 1.172-1.172h46.094c.646 0 1.172.526 1.172 1.172v2.343a.39.39 0 10.78 0V19.93a1.955 1.955 0 00-1.952-1.953zm-.782 10.156H2.735a.39.39 0 100 .781h44.53a.39.39 0 100-.781z" fill="#000"/><path d="M49.61 21.883h-4.688a.39.39 0 100 .781h4.297v5.86a.39.39 0 10.781 0v-6.25a.39.39 0 00-.39-.391zm-7.813 0H.39a.39.39 0 00-.391.39v6.25a.39.39 0 10.781 0v-5.859h41.016a.39.39 0 100-.781z" fill="#000"/><path d="M2.734 28.133a.39.39 0 00-.39.39v3.907H.78v-3.907a.39.39 0 10-.781 0v4.297c0 .216.175.39.39.39h2.344a.39.39 0 00.391-.39v-4.297a.39.39 0 00-.39-.39zm46.876 0a.39.39 0 00-.391.39v3.907h-1.563v-3.907a.39.39 0 10-.781 0v4.297c0 .216.175.39.39.39h2.344a.39.39 0 00.391-.39v-4.297a.39.39 0 00-.39-.39zM45.703.79H4.297a1.955 1.955 0 00-1.953 1.952v9.766a.39.39 0 10.781 0V2.742c0-.646.526-1.172 1.172-1.172h41.406c.646 0 1.172.526 1.172 1.172v9.766a.39.39 0 10.781 0V2.742A1.955 1.955 0 0045.703.79z" fill="#000"/><path d="M2.858 12.137a.39.39 0 00-.494.247L.02 19.415a.39.39 0 00.741.248l2.344-7.032a.39.39 0 00-.247-.494zm47.122 7.278l-2.344-7.031a.39.39 0 10-.74.247l2.343 7.031a.39.39 0 10.741-.247z" fill="#000"/><path d="M47.266 12.117H43.75a.39.39 0 100 .781h3.516a.39.39 0 100-.78zm-41.016 0H2.734a.39.39 0 100 .781H6.25a.39.39 0 100-.78z" fill="#000"/><path d="M25 7.039a.39.39 0 00.39-.39v-.391a1.955 1.955 0 00-1.953-1.953H7.812A1.955 1.955 0 005.86 6.258v6.25c0 1.077.877 1.953 1.953 1.953h15.625a1.955 1.955 0 001.953-1.953V9.383a.39.39 0 10-.78 0v3.125c0 .646-.526 1.172-1.173 1.172H7.812a1.173 1.173 0 01-1.171-1.172v-6.25c0-.646.525-1.172 1.171-1.172h15.625c.646 0 1.172.526 1.172 1.172v.39a.39.39 0 00.39.391z" fill="#000"/><path d="M42.187 4.305H26.563a1.955 1.955 0 00-1.954 1.953.39.39 0 10.782 0c0-.646.525-1.172 1.172-1.172h15.624c.647 0 1.172.526 1.172 1.172v6.25c0 .646-.526 1.172-1.172 1.172H26.563a1.173 1.173 0 01-1.172-1.172.39.39 0 10-.782 0c0 1.077.876 1.953 1.953 1.953h15.625a1.955 1.955 0 001.954-1.953v-6.25a1.955 1.955 0 00-1.954-1.953z" fill="#000"/></svg>