<svg width="31" height="50" fill="none" xmlns="http://www.w3.org/2000/svg"><path d="M4.414 28.516c-.221 0-.4.175-.4.39V49.22H2.412V28.906a.395.395 0 00-.4-.39c-.222 0-.4.175-.4.39V49.61c0 .216.178.391.4.391h2.402c.221 0 .4-.175.4-.39V28.905a.395.395 0 00-.4-.39zm24.824.39c-.221 0-.4.175-.4.39V49.22h-1.602V29.297a.396.396 0 00-.4-.39c-.221 0-.4.174-.4.39v20.312c0 .216.178.391.4.391h2.402c.222 0 .4-.175.4-.39V29.296a.396.396 0 00-.4-.39zM5.215 11.719c-.222 0-.4.175-.4.39V25c0 .216.178.39.4.39.221 0 .4-.174.4-.39V12.11a.395.395 0 00-.4-.391zm20.82 0c-.221 0-.4.175-.4.39V25c0 .216.179.39.4.39.222 0 .4-.174.4-.39V12.11a.395.395 0 00-.4-.391z" fill="#000"/><path d="M29.639 24.61H1.61c-.662 0-1.2.525-1.2 1.171v2.344c0 .646.538 1.172 1.2 1.172h28.03c.662 0 1.2-.526 1.2-1.172v-2.344c0-.646-.538-1.172-1.2-1.172zm.4 3.515c0 .215-.18.39-.4.39H1.61a.396.396 0 01-.4-.39v-2.344c0-.215.18-.39.4-.39h28.03c.22 0 .4.175.4.39v2.344zM25.234 0H6.016C4.028 0 2.412 1.577 2.412 3.516v5.468c0 1.939 1.616 3.516 3.604 3.516h19.218c1.987 0 3.604-1.577 3.604-3.516V3.516C28.838 1.577 27.22 0 25.234 0zm2.803 8.984c0 1.508-1.258 2.735-2.803 2.735H6.016c-1.545 0-2.803-1.227-2.803-2.735V3.516C3.213 2.008 4.47.78 6.016.78h19.218c1.545 0 2.803 1.227 2.803 2.735v5.468z" fill="#000"/><path d="M6.816 11.719c-.221 0-.4.175-.4.39V25c0 .216.179.39.4.39.222 0 .4-.174.4-.39V12.11a.395.395 0 00-.4-.391zm17.618 0c-.222 0-.4.175-.4.39V25c0 .216.178.39.4.39.221 0 .4-.174.4-.39V12.11a.396.396 0 00-.4-.391zm2.402 21.484H4.414c-.221 0-.4.175-.4.39 0 .216.179.391.4.391h22.422c.221 0 .4-.175.4-.39a.395.395 0 00-.4-.39zm0 1.563H4.414c-.221 0-.4.175-.4.39 0 .216.179.39.4.39h22.422c.221 0 .4-.174.4-.39a.395.395 0 00-.4-.39zM4.946 2.361c-.338.3-.532.72-.532 1.155v2.343c0 .216.179.391.4.391.222 0 .4-.175.4-.39V3.515c0-.215.099-.425.27-.576a.384.384 0 00.027-.552.408.408 0 00-.565-.027zm20.288-.408h-1.2a.396.396 0 00-.401.39c0 .216.179.391.4.391h1.201c.427 0 .801.366.801.782v.78c0 .216.18.391.4.391.222 0 .4-.175.4-.39v-.781c0-.847-.733-1.563-1.6-1.563zm-2.802 0H21.23c-.222 0-.4.175-.4.39 0 .216.178.391.4.391h1.2a.396.396 0 00.401-.39.395.395 0 00-.4-.39z" fill="#000"/></svg>