<svg width="51" height="38" fill="none" xmlns="http://www.w3.org/2000/svg"><path d="M1.982.64H.396A.393.393 0 000 1.032V36.97c0 .216.178.39.396.39h1.586a.393.393 0 00.397-.39V1.03a.393.393 0 00-.397-.39zm-.396 35.938H.793V1.422h.793v35.156zM50.35.64h-1.586a.393.393 0 00-.397.391V36.97c0 .216.178.39.397.39h1.585a.393.393 0 00.397-.39V1.03a.393.393 0 00-.397-.39zm-.397 35.938h-.793V1.422h.793v35.156z" fill="#000"/><path d="M23.787 29.938H1.982a.393.393 0 00-.396.39c0 .216.178.39.396.39h21.805a.394.394 0 00.397-.39.393.393 0 00-.397-.39zM48.764 31.5H1.982a.393.393 0 00-.396.39c0 .217.178.391.396.391h46.782a.393.393 0 00.397-.39.393.393 0 00-.397-.391zm0-1.562H26.959a.393.393 0 00-.396.39c0 .216.177.39.396.39h21.805a.394.394 0 00.396-.39.393.393 0 00-.396-.39zm0-20.313H43.61a.393.393 0 00-.396.39c0 .217.178.391.396.391h5.154a.393.393 0 00.397-.39.393.393 0 00-.397-.391zm-7.929 0H1.982a.393.393 0 00-.396.39c0 .217.178.391.396.391h38.853a.394.394 0 00.396-.39.394.394 0 00-.396-.391zm7.929 1.563H1.982a.393.393 0 00-.396.39c0 .216.178.39.396.39h46.782a.394.394 0 00.397-.39.393.393 0 00-.397-.39zm0-4.688H1.982a.393.393 0 00-.396.39c0 .217.178.391.396.391h46.782a.393.393 0 00.397-.39.393.393 0 00-.397-.391zm0 20.313H1.982a.393.393 0 00-.396.39c0 .216.178.39.396.39h46.782a.394.394 0 00.397-.39.393.393 0 00-.397-.39zm-34.888-3.125H5.551a.393.393 0 00-.397.39c0 .216.178.39.397.39h8.325a.394.394 0 00.397-.39.393.393 0 00-.397-.39zm0-3.125H5.551a.393.393 0 00-.397.39c0 .216.178.39.397.39h8.325a.394.394 0 00.397-.39.393.393 0 00-.397-.39zm0-3.125H5.551a.393.393 0 00-.397.39c0 .216.178.39.397.39h8.325a.394.394 0 00.397-.39.393.393 0 00-.397-.39zm0-3.125H5.551a.393.393 0 00-.397.39c0 .216.178.39.397.39h8.325a.394.394 0 00.397-.39.393.393 0 00-.397-.39z" fill="#000"/><path d="M5.55 11.578a.393.393 0 00-.396.39v18.36c0 .216.178.39.397.39a.394.394 0 00.396-.39v-18.36a.393.393 0 00-.396-.39zm8.326 0a.393.393 0 00-.396.39v18.36c0 .216.177.39.396.39a.394.394 0 00.396-.39v-18.36a.393.393 0 00-.396-.39zm34.888-8.594c-11.942 0-12.644 3.471-12.685 3.867a.388.388 0 00.394.424.401.401 0 00.394-.334c.005-.032.64-3.175 11.897-3.175a.393.393 0 00.396-.391.393.393 0 00-.396-.39zm0 20.313c-11.942 0-12.644 3.471-12.685 3.867a.388.388 0 00.394.424.401.401 0 00.394-.335c.005-.032.64-3.175 11.897-3.175a.393.393 0 00.396-.39.393.393 0 00-.396-.391z" fill="#000"/></svg>