<svg width="59" height="50" fill="none" xmlns="http://www.w3.org/2000/svg"><path d="M55.586 0H3.414C2.057 0 .954.876.954 1.953v44.531c0 1.077 1.103 1.953 2.46 1.953h52.172c1.357 0 2.46-.876 2.46-1.953V1.954C58.047.875 56.944 0 55.587 0zm1.477 46.484c0 .646-.663 1.172-1.477 1.172H3.414c-.814 0-1.477-.526-1.477-1.172V1.954C1.938 1.306 2.6.78 3.415.78h52.172c.814 0 1.477.526 1.477 1.172v44.531z" fill="#000"/><path d="M56.57 47.656c-.271 0-.492.175-.492.39v1.173H2.922v-1.172c0-.216-.22-.39-.492-.39s-.493.174-.493.39v1.562c0 .216.221.391.493.391h54.14c.272 0 .492-.175.492-.39v-1.563c0-.216-.22-.39-.492-.39zm.985-37.89H31.469c-.272 0-.492.175-.492.39 0 .216.22.39.492.39h26.086c.271 0 .492-.174.492-.39 0-.215-.22-.39-.492-.39zm-28.055 0H1.445c-.271 0-.492.175-.492.39 0 .216.22.39.492.39H29.5c.272 0 .492-.174.492-.39 0-.215-.22-.39-.492-.39zM43.281 37.89H15.72c-.272 0-.492.176-.492.391 0 .216.22.39.492.39h27.56c.272 0 .492-.174.492-.39 0-.215-.22-.39-.492-.39zm-1.968 5.079H15.718c-.272 0-.492.175-.492.39 0 .216.22.391.492.391h25.593c.272 0 .493-.175.493-.39 0-.216-.22-.391-.492-.391z" fill="#000"/><path d="M15.719 11.328c-.272 0-.492.175-.492.39v36.329c0 .216.22.39.492.39.271 0 .492-.174.492-.39V11.719c0-.216-.22-.39-.492-.39zm0-11.328c-.272 0-.492.175-.492.39v9.766c0 .216.22.39.492.39.271 0 .492-.174.492-.39V.391c0-.216-.22-.391-.492-.391zm27.562 0c-.271 0-.492.175-.492.39v47.657c0 .216.22.39.492.39s.492-.174.492-.39V.39c0-.216-.22-.391-.492-.391zM29.5 0c-.272 0-.492.175-.492.39v37.891c0 .216.22.39.492.39s.492-.174.492-.39V.391c0-.216-.22-.391-.492-.391zM13.258 5.86c-.272 0-.492.174-.492.39v1.953c0 .216.22.39.492.39s.492-.174.492-.39V6.25c0-.216-.22-.39-.492-.39zm13.782 0c-.273 0-.493.174-.493.39v1.953c0 .216.22.39.492.39s.492-.174.492-.39V6.25c0-.216-.22-.39-.492-.39zm4.92 0c-.27 0-.491.174-.491.39v1.953c0 .216.22.39.492.39s.492-.174.492-.39V6.25c0-.216-.22-.39-.492-.39zm-4.92 16.406c-.273 0-.493.175-.493.39v1.953c0 .216.22.391.492.391s.492-.175.492-.39v-1.954c0-.215-.22-.39-.492-.39zm4.92 0c-.27 0-.491.175-.491.39v1.953c0 .216.22.391.492.391s.492-.175.492-.39v-1.954c0-.215-.22-.39-.492-.39zm13.782 0c-.271 0-.492.175-.492.39v1.953c0 .216.22.391.492.391s.492-.175.492-.39v-1.954c0-.215-.22-.39-.492-.39zm-32.484 0c-.272 0-.492.175-.492.39v1.953c0 .216.22.391.492.391s.492-.175.492-.39v-1.954c0-.215-.22-.39-.492-.39zM45.742 5.86c-.271 0-.492.174-.492.39v1.953c0 .216.22.39.492.39s.492-.174.492-.39V6.25c0-.216-.22-.39-.492-.39zM30.977 39.844h-2.954c-.271 0-.492.175-.492.39 0 .216.22.391.492.391h2.954c.271 0 .492-.175.492-.39 0-.216-.22-.391-.492-.391zm0 5.078h-2.954c-.271 0-.492.175-.492.39 0 .216.22.391.492.391h2.954c.271 0 .492-.175.492-.39 0-.216-.22-.391-.492-.391zM55.094 1.953h-1.969c-.272 0-.492.175-.492.39 0 .216.22.391.492.391h1.477v5.079c0 .215.22.39.492.39.271 0 .492-.175.492-.39v-5.47c0-.215-.22-.39-.492-.39zm-3.938 0h-1.968c-.272 0-.493.175-.493.39 0 .216.22.391.492.391h1.97c.27 0 .491-.175.491-.39 0-.216-.22-.39-.492-.39zM3.906 37.11c-.271 0-.492.174-.492.39v.781c0 .216.22.39.492.39s.492-.174.492-.39V37.5c0-.216-.22-.39-.492-.39zm0 2.734c-.271 0-.492.175-.492.39v5.86c0 .215.22.39.492.39s.492-.175.492-.39v-5.86c0-.215-.22-.39-.492-.39z" fill="#000"/></svg>