<svg width="64" height="50" fill="none" xmlns="http://www.w3.org/2000/svg"><path d="M63 27.344c-.276 0-.5.174-.5.39V49.22h-61V27.734c0-.216-.224-.39-.5-.39s-.5.174-.5.39V49.61c0 .216.224.391.5.391h62c.276 0 .5-.175.5-.39V27.733c0-.216-.224-.39-.5-.39zM63 0H39c-.276 0-.5.175-.5.39 0 .216.224.391.5.391h23.5v14.063c0 .215.224.39.5.39s.5-.175.5-.39V.39c0-.215-.224-.39-.5-.39zM15 0H1C.724 0 .5.175.5.39v14.454c0 .215.224.39.5.39s.5-.175.5-.39V.78H15c.276 0 .5-.175.5-.39 0-.215-.224-.39-.5-.39z" fill="#000"/><path d="M63.5 25.781H.5c-.276 0-.5.175-.5.39v1.563c0 .216.224.391.5.391h63c.276 0 .5-.175.5-.39v-1.563c0-.216-.224-.39-.5-.39zm-.5 1.563H1v-.782h62v.782z" fill="#000"/><path d="M15 27.344c-.276 0-.5.174-.5.39V49.22c0 .216.224.39.5.39s.5-.174.5-.39V27.734c0-.216-.224-.39-.5-.39zM15 0c-.276 0-.5.175-.5.39v14.454c0 .215.224.39.5.39s.5-.175.5-.39V.39c0-.215-.224-.39-.5-.39zm24 27.344c-.276 0-.5.174-.5.39V49.61c0 .216.224.391.5.391s.5-.175.5-.39V27.733c0-.216-.224-.39-.5-.39zm12 0c-.276 0-.5.174-.5.39v20.313c0 .216.224.39.5.39s.5-.174.5-.39V27.734c0-.216-.224-.39-.5-.39zM39 0c-.276 0-.5.175-.5.39v14.454c0 .215.224.39.5.39s.5-.175.5-.39V.39c0-.215-.224-.39-.5-.39zm12 0c-.276 0-.5.175-.5.39v12.891c0 .216.224.39.5.39s.5-.174.5-.39V.391C51.5.175 51.276 0 51 0z" fill="#000"/><path d="M39 42.969H15c-.276 0-.5.174-.5.39 0 .216.224.391.5.391h24c.276 0 .5-.175.5-.39 0-.217-.224-.391-.5-.391zm-26-8.985H1c-.276 0-.5.175-.5.391 0 .216.224.39.5.39h12c.276 0 .5-.174.5-.39 0-.216-.224-.39-.5-.39zm26-2.344H15c-.276 0-.5.175-.5.391 0 .216.224.39.5.39h24c.276 0 .5-.174.5-.39 0-.216-.224-.39-.5-.39zm-5 1.563H20c-.276 0-.5.175-.5.39 0 .217.224.391.5.391h14c.276 0 .5-.174.5-.39 0-.216-.224-.39-.5-.39zm-24-3.906H6c-.276 0-.5.174-.5.39 0 .216.224.391.5.391h4c.276 0 .5-.174.5-.39 0-.216-.224-.391-.5-.391zm53-14.844H1c-.276 0-.5.175-.5.39 0 .216.224.391.5.391h62c.276 0 .5-.175.5-.39 0-.216-.224-.39-.5-.39zM31.5 0h-9c-.276 0-.5.175-.5.39v9.376c0 .215.224.39.5.39h9c.276 0 .5-.175.5-.39V.39c0-.215-.224-.39-.5-.39zM31 9.375h-8V.781h8v8.594z" fill="#000"/><path d="M22.878 9.51a.602.602 0 00-.706-.04l-7.5 5.079c-.208.14-.23.388-.05.55a.567.567 0 00.378.135.59.59 0 00.327-.095l7.5-5.078c.209-.141.231-.388.05-.551zm16.449 5.038l-7.5-5.078a.603.603 0 00-.705.04c-.18.162-.158.41.05.55l7.5 5.079a.588.588 0 00.327.095c.14 0 .28-.046.379-.135.18-.162.158-.41-.05-.55zM2.5 14.844c-.276 0-.5.175-.5.39v10.938c0 .216.224.39.5.39s.5-.174.5-.39V15.234c0-.215-.224-.39-.5-.39zm59 0c-.276 0-.5.175-.5.39v10.938c0 .216.224.39.5.39s.5-.174.5-.39V15.234c0-.215-.224-.39-.5-.39zm-49 21.484c-.276 0-.5.175-.5.39v3.126c0 .216.224.39.5.39s.5-.174.5-.39v-3.125c0-.216-.224-.39-.5-.39zm0-26.953c-.276 0-.5.175-.5.39v3.126c0 .215.224.39.5.39s.5-.175.5-.39V9.766c0-.216-.224-.391-.5-.391zm36 19.922c-.276 0-.5.174-.5.39v3.125c0 .217.224.391.5.391s.5-.175.5-.39v-3.126c0-.216-.224-.39-.5-.39zm5 0c-.276 0-.5.174-.5.39v3.125c0 .217.224.391.5.391s.5-.175.5-.39v-3.126c0-.216-.224-.39-.5-.39zm-5-19.922c-.276 0-.5.175-.5.39v3.126c0 .215.224.39.5.39s.5-.175.5-.39V9.766c0-.216-.224-.391-.5-.391zm5 0c-.276 0-.5.175-.5.39v3.126c0 .215.224.39.5.39s.5-.175.5-.39V9.766c0-.216-.224-.391-.5-.391zm-31-8.203H15c-.276 0-.5.175-.5.39 0 .216.224.391.5.391h7.5c.276 0 .5-.175.5-.39 0-.216-.224-.391-.5-.391zm16.5 0h-7.5c-.276 0-.5.175-.5.39 0 .216.224.391.5.391H39c.276 0 .5-.175.5-.39 0-.216-.224-.391-.5-.391zm-5 33.984H20c-.276 0-.5.175-.5.39v5.47c0 .216.224.39.5.39h14c.276 0 .5-.174.5-.39v-5.47c0-.215-.224-.39-.5-.39zm-.5 5.469h-13v-4.688h13v4.688zM21.75 28.906c-.689 0-1.25.438-1.25.977 0 .539.561.976 1.25.976s1.25-.438 1.25-.976c0-.539-.561-.977-1.25-.977zm0 1.172c-.138 0-.25-.088-.25-.195 0-.108.112-.195.25-.195s.25.087.25.195c0 .107-.112.195-.25.195zm10.5-1.172c-.689 0-1.25.438-1.25.977 0 .539.561.976 1.25.976s1.25-.438 1.25-.976c0-.539-.561-.977-1.25-.977zm0 1.172c-.138 0-.25-.088-.25-.195 0-.108.112-.195.25-.195s.25.087.25.195c0 .107-.112.195-.25.195zM56.5 2.344h-2c-.276 0-.5.175-.5.39 0 .216.224.391.5.391h2c.276 0 .5-.175.5-.39 0-.216-.224-.391-.5-.391zm4 0h-2c-.276 0-.5.175-.5.39 0 .216.224.391.5.391H60v5.078c0 .216.224.39.5.39s.5-.174.5-.39V2.734c0-.215-.224-.39-.5-.39zM3.5 43.36c-.276 0-.5.174-.5.39v3.906c0 .216.224.39.5.39s.5-.174.5-.39V43.75c0-.216-.224-.39-.5-.39zm0-3.126c-.276 0-.5.175-.5.391v1.172c0 .216.224.39.5.39s.5-.174.5-.39v-1.172c0-.216-.224-.39-.5-.39z" fill="#000"/></svg>