<svg width="50" height="34" fill="none" xmlns="http://www.w3.org/2000/svg"><path d="M6.25 31.063H3.125a.39.39 0 00-.39.39v1.953c0 .216.174.39.39.39H6.25a.39.39 0 00.39-.39v-1.953a.39.39 0 00-.39-.39zm-.39 1.953H3.515v-1.172h2.343v1.172zm41.015-1.953H43.75a.39.39 0 00-.39.39v1.953c0 .216.174.39.39.39h3.125a.39.39 0 00.39-.39v-1.953a.39.39 0 00-.39-.39zm-.39 1.953H44.14v-1.172h2.343v1.172z" fill="#000"/><path d="M49.61.203H.39a.39.39 0 00-.39.39v30.86c0 .216.175.39.39.39h49.22a.39.39 0 00.39-.39V.593a.39.39 0 00-.39-.39zm-.391 30.86H.78V.983h48.44v30.078z" fill="#000"/><path d="M37.89 20.906H.39a.39.39 0 100 .782h37.5a.39.39 0 100-.782zm8.594 0h-4.297a.39.39 0 100 .782h4.297a.39.39 0 100-.782zM37.89 10.75H.39a.39.39 0 100 .781h37.5a.39.39 0 100-.781zm8.594 0h-4.297a.39.39 0 100 .781h4.297a.39.39 0 100-.781zM28.125 5.281h-6.25a.39.39 0 100 .782h6.25a.39.39 0 100-.782zm0 10.938h-6.25a.39.39 0 100 .781h6.25a.39.39 0 100-.781zm0 10.156h-6.25a.39.39 0 100 .781h6.25a.39.39 0 100-.781z" fill="#000"/></svg>