<svg width="50" height="24" fill="none" xmlns="http://www.w3.org/2000/svg"><path d="M49.219 16.883c0 1.953-1.284 4.297-3.125 4.297H4.687c-1.934 0-3.906-1.953-3.906-3.907H0c0 2.344 2.322 4.688 4.688 4.688h41.406c2.337 0 3.906-2.734 3.906-5.078h-.781zM42.969.086H7.812c-2.333 0-4.687 1.087-4.687 3.516v3.906h.781V3.602c0-1.89 1.962-2.735 3.906-2.735H42.97c2.074 0 3.125.92 3.125 2.735v3.906h.781V3.602c0-2.235-1.424-3.516-3.906-3.516z" fill="#000"/><path d="M4.688 7.508H3.125C.542 7.508 0 8.57 0 9.46v7.812h.781V9.461c0-.778.789-1.172 2.344-1.172h1.563c1.24 0 1.562.241 1.562 1.172v5.86h.781V9.46c0-1.716-1.126-1.953-2.343-1.953zm42.968 0h-1.562c-2.583 0-3.125 1.062-3.125 1.953v5.86h.781V9.46c0-.778.789-1.172 2.344-1.172h1.562c1.242 0 1.563.241 1.563 1.172v7.812H50V9.461c0-1.716-1.127-1.953-2.344-1.953z" fill="#000"/><path d="M43.75 14.54H7.031v.78H43.75v-.78zm-37.5 6.64v1.953H5.078V21.18h-.781v2.734H7.03V21.18h-.78zm38.672 0v1.953H43.75V21.18h-.781v2.734h2.734V21.18h-.781zM8.594 17.664c-.57 0-1.563-1.241-1.563-1.953v-.39H6.25v.39c0 1.08 1.257 2.734 2.344 2.734h27.734v-.78H8.594zm34.375-2.344v.39c0 .817-.297 1.954-.782 1.954h-2.343v.781h2.343c1.147 0 1.563-1.635 1.563-2.734v-.39h-.781zM5.078 3.601v1.954h.781V3.6c0-.43.164-.706.626-1.053l-.47-.625c-.463.349-.937.821-.937 1.678zM42.969 2.04h-1.953v.78h1.953c1.326 0 1.562.205 1.562.782h.782c0-1.563-1.525-1.563-2.344-1.563zm-3.906 0H37.89v.78h1.172v-.78z" fill="#000"/></svg>