<svg width="50" height="28" fill="none" xmlns="http://www.w3.org/2000/svg"><path d="M49.61.23H.39A.39.39 0 000 .621v1.563c0 .215.175.39.39.39h49.22a.39.39 0 00.39-.39V.62a.39.39 0 00-.39-.39zm-.391 1.563H.78v-.781h48.44v.781zM25.781 4.918a.39.39 0 00-.39.39v21.29a.391.391 0 01-.782 0V5.308a.39.39 0 00-.78 0v21.29c0 .646.525 1.172 1.171 1.172s1.172-.526 1.172-1.172V5.308a.39.39 0 00-.39-.39z" fill="#000"/><path d="M23.828 17.613a4.302 4.302 0 00-4.297 4.297c0 2.8-2.278 5.078-5.078 5.078a.391.391 0 010-.781 4.302 4.302 0 004.297-4.297c0-2.8 2.278-5.078 5.078-5.078a.39.39 0 000-.781 5.866 5.866 0 00-5.86 5.86 3.52 3.52 0 01-3.515 3.515c-.646 0-1.172.526-1.172 1.172 0 .646.526 1.172 1.172 1.172a5.867 5.867 0 005.86-5.86 3.52 3.52 0 013.515-3.515.39.39 0 000-.782zm11.719 7.813a3.52 3.52 0 01-3.516-3.516c0-3.23-2.628-5.86-5.86-5.86a.39.39 0 000 .782c2.8 0 5.079 2.278 5.079 5.078a4.302 4.302 0 004.297 4.297.391.391 0 010 .781 5.084 5.084 0 01-5.078-5.078 4.302 4.302 0 00-4.297-4.297.39.39 0 000 .782 3.52 3.52 0 013.515 3.515 5.867 5.867 0 005.86 5.86c.646 0 1.172-.526 1.172-1.172 0-.646-.526-1.172-1.172-1.172zM46.094 1.793a.39.39 0 00-.39.39v2.735H4.296V2.184a.39.39 0 00-.781 0v3.125c0 .215.175.39.39.39h42.188a.39.39 0 00.39-.39V2.184a.39.39 0 00-.39-.391z" fill="#000"/><path d="M44.14 3.355h-5.078a.39.39 0 000 .782h5.079a.39.39 0 000-.782zm-7.03 0h-1.172a.39.39 0 000 .782h1.171a.39.39 0 000-.782z" fill="#000"/></svg>