<svg width="20" height="50" fill="none" xmlns="http://www.w3.org/2000/svg"><path d="M16.924 46.882H3.427c-1.385 0-2.6 1.275-2.6 2.728 0 .215.175.39.39.39h17.916a.39.39 0 00.39-.39c0-1.453-1.214-2.728-2.599-2.728zM1.651 49.221c.179-.799.88-1.56 1.776-1.56h13.497c.896 0 1.597.761 1.775 1.56H1.651z" fill="#000"/><path d="M10.78 3.621a.39.39 0 00-.39.39v42.871H9.22V3.622a.39.39 0 00-.779 0v43.65c0 .215.175.39.39.39h1.949a.39.39 0 00.39-.39V4.012a.39.39 0 00-.39-.39z" fill="#000"/><path d="M10.025 0a2.12 2.12 0 00-2.117 2.117 2.12 2.12 0 002.117 2.116c1.168 0 2.117-.95 2.117-2.116A2.12 2.12 0 0010.024 0zm0 3.454c-.737 0-1.337-.6-1.337-1.337S9.288.78 10.025.78a1.338 1.338 0 010 2.674zm7.676 2.98a1.433 1.433 0 10.002 2.864 1.433 1.433 0 00-.002-2.864zm0 2.086a.654.654 0 11.002-1.308.654.654 0 01-.002 1.308zM1.908 6.434a1.434 1.434 0 101.433 1.433c0-.79-.642-1.433-1.433-1.433zm0 2.086a.654.654 0 11.003-1.307.654.654 0 01-.003 1.307z" fill="#000"/><path d="M8.746 15.215c-3.26-.438-5.718-3.253-5.718-6.548a.39.39 0 00-.779 0c0 3.683 2.748 6.83 6.393 7.32a.39.39 0 10.104-.773zm8.277-6.938a.39.39 0 00-.39.39c0 3.294-2.458 6.11-5.717 6.547a.39.39 0 00.104.773c3.645-.49 6.393-3.637 6.393-7.32a.39.39 0 00-.39-.39z" fill="#000"/><path d="M8.738 16.665a7.96 7.96 0 01-7.075-7.923.39.39 0 00-.78 0 8.74 8.74 0 007.812 8.7.39.39 0 00.043-.777zm9.65-8.313a.39.39 0 00-.39.39 7.96 7.96 0 01-7.075 7.923.39.39 0 00.087.774 8.739 8.739 0 007.767-8.697.39.39 0 00-.39-.39zm-.687 10.731a1.434 1.434 0 000 2.866c.79 0 1.433-.643 1.433-1.433s-.643-1.433-1.433-1.433zm0 2.087a.654.654 0 11.002-1.308.654.654 0 01-.002 1.308zM1.908 19.083a1.434 1.434 0 101.433 1.433c0-.79-.642-1.433-1.433-1.433zm0 2.087a.654.654 0 11.003-1.308.654.654 0 01-.003 1.308z" fill="#000"/><path d="M8.746 27.864c-3.26-.438-5.718-3.253-5.718-6.548a.39.39 0 00-.779 0c0 3.683 2.748 6.83 6.393 7.32a.39.39 0 10.104-.772zm8.277-6.938a.39.39 0 00-.39.39c0 3.295-2.458 6.11-5.718 6.548a.39.39 0 00.104.772c3.645-.49 6.394-3.636 6.394-7.32a.39.39 0 00-.39-.39z" fill="#000"/><path d="M8.738 29.314a7.96 7.96 0 01-7.075-7.923.39.39 0 00-.78 0 8.74 8.74 0 007.768 8.698l.044.002a.389.389 0 00.043-.777zm9.65-8.312a.39.39 0 00-.39.39 7.96 7.96 0 01-7.075 7.922.39.39 0 00.087.774 8.739 8.739 0 007.767-8.697.39.39 0 00-.39-.39z" fill="#000"/></svg>