<svg width="162" height="23" fill="none" xmlns="http://www.w3.org/2000/svg"><path d="M18.64.328l.547 6.688h-.546c-.552-1.667-1.266-2.922-2.141-3.766-1.26-1.219-2.88-1.828-4.86-1.828-2.697 0-4.75 1.068-6.156 3.203C4.307 6.427 3.72 8.573 3.72 11.063c0 2.02.39 3.864 1.172 5.53.78 1.667 1.802 2.891 3.062 3.673 1.271.77 2.573 1.156 3.906 1.156.782 0 1.537-.1 2.266-.297a9.036 9.036 0 002.11-.875v-6.125c0-1.063-.084-1.755-.25-2.078a1.544 1.544 0 00-.75-.75c-.334-.177-.928-.266-1.782-.266v-.594h8.203v.594h-.39c-.813 0-1.37.271-1.672.813-.209.385-.313 1.146-.313 2.281v6.484c-1.198.646-2.38 1.12-3.547 1.422-1.166.302-2.463.453-3.89.453-4.094 0-7.203-1.312-9.328-3.937C.922 16.578.125 14.307.125 11.734c0-1.864.448-3.65 1.344-5.359 1.062-2.031 2.52-3.594 4.375-4.688C7.396.781 9.229.329 11.344.329c.77 0 1.469.063 2.094.188.635.125 1.53.4 2.687.828.583.218.974.328 1.172.328.198 0 .364-.089.5-.266.146-.187.234-.547.265-1.078h.579zm18.75 1.063V.812h7.5v.579h-.796c-.834 0-1.474.349-1.922 1.046-.219.323-.328 1.073-.328 2.25v8.594c0 2.125-.214 3.776-.64 4.953-.418 1.167-1.246 2.172-2.485 3.016-1.23.833-2.907 1.25-5.032 1.25-2.312 0-4.067-.401-5.265-1.203a6.515 6.515 0 01-2.547-3.235c-.333-.927-.5-2.666-.5-5.218V4.563c0-1.303-.182-2.157-.547-2.563-.354-.406-.932-.61-1.734-.61h-.797V.814h9.156v.578h-.812c-.875 0-1.5.276-1.875.828-.26.375-.391 1.156-.391 2.344v9.234c0 .823.073 1.765.219 2.828.156 1.063.432 1.89.828 2.484.396.594.963 1.084 1.703 1.47.75.384 1.667.577 2.75.577 1.385 0 2.625-.302 3.719-.906 1.093-.604 1.838-1.375 2.234-2.313.406-.947.61-2.546.61-4.796v-8.58c0-1.322-.146-2.15-.438-2.484-.406-.458-1.01-.687-1.813-.687h-.796zM63.767.812L64 5.782h-.594c-.114-.876-.27-1.5-.468-1.876-.323-.604-.756-1.047-1.297-1.328-.532-.292-1.235-.437-2.11-.437h-2.984v16.187c0 1.302.14 2.115.422 2.438.396.437 1.005.656 1.828.656h.734V22h-8.984v-.578h.75c.896 0 1.531-.271 1.906-.813.23-.333.344-1.093.344-2.28V2.14H51c-.99 0-1.693.073-2.11.218-.541.198-1.005.579-1.39 1.141-.385.563-.615 1.323-.688 2.281h-.593l.25-4.968h17.297zm10.922 20.61V22H65.61v-.578h.75c.875 0 1.51-.255 1.907-.766.25-.333.375-1.135.375-2.406V4.562c0-1.072-.068-1.78-.204-2.125-.104-.26-.317-.484-.64-.671a2.962 2.962 0 00-1.438-.375h-.75V.812h9.079v.579h-.766c-.865 0-1.495.255-1.89.765-.261.334-.391 1.136-.391 2.406V18.25c0 1.073.067 1.781.203 2.125.104.26.323.484.656.672.448.25.922.375 1.422.375h.766zM94.733.328l.485 7.203h-.485c-.645-2.156-1.567-3.708-2.765-4.656-1.198-.948-2.636-1.422-4.313-1.422-1.406 0-2.677.36-3.812 1.078-1.136.709-2.031 1.844-2.688 3.406-.646 1.563-.969 3.506-.969 5.829 0 1.916.308 3.578.922 4.984.615 1.406 1.537 2.484 2.766 3.234 1.24.75 2.651 1.125 4.234 1.125 1.375 0 2.589-.291 3.641-.875 1.052-.593 2.208-1.765 3.469-3.515l.484.312c-1.062 1.886-2.302 3.266-3.719 4.14-1.416.876-3.099 1.313-5.046 1.313-3.51 0-6.23-1.302-8.157-3.906-1.437-1.937-2.156-4.219-2.156-6.844 0-2.114.474-4.057 1.422-5.828.948-1.77 2.25-3.14 3.906-4.11C83.62.819 85.437.329 87.406.329c1.531 0 3.042.375 4.531 1.125.438.23.75.344.938.344.281 0 .526-.1.734-.297.271-.281.464-.672.579-1.172h.546zm8.657 10.313h9.843V4.578c0-1.083-.067-1.797-.203-2.14-.104-.26-.323-.485-.656-.672a2.875 2.875 0 00-1.422-.375h-.75V.812h9.063v.579h-.75c-.5 0-.974.12-1.422.359a1.341 1.341 0 00-.688.766c-.114.333-.172 1.02-.172 2.062V18.25c0 1.073.068 1.781.204 2.125.104.26.317.484.64.672.458.25.938.375 1.438.375h.75V22h-9.063v-.578h.75c.865 0 1.495-.255 1.891-.766.26-.333.39-1.135.39-2.406v-6.453h-9.843v6.453c0 1.073.067 1.781.203 2.125.104.26.323.484.656.672.448.25.922.375 1.422.375h.766V22h-9.079v-.578h.75c.875 0 1.51-.255 1.907-.766.25-.333.375-1.135.375-2.406V4.578c0-1.083-.068-1.797-.203-2.14-.105-.26-.318-.485-.641-.672a2.962 2.962 0 00-1.438-.375h-.75V.812h9.079v.579h-.766c-.5 0-.974.12-1.422.359a1.352 1.352 0 00-.672.766c-.125.333-.187 1.02-.187 2.062v6.063zm23.234-8.672v8.375h4.656c1.209 0 2.016-.182 2.422-.547.542-.48.844-1.323.906-2.531h.579v7.375h-.579c-.145-1.032-.291-1.693-.437-1.985-.188-.364-.495-.65-.922-.86-.427-.207-1.083-.312-1.969-.312h-4.656v6.985c0 .937.042 1.51.125 1.718.083.198.229.36.438.485.208.114.604.172 1.187.172h3.594c1.198 0 2.067-.084 2.609-.25.542-.167 1.063-.495 1.563-.985.645-.646 1.307-1.62 1.984-2.922h.625L136.922 22h-16.328v-.578h.75c.5 0 .974-.12 1.422-.36.333-.166.557-.416.672-.75.124-.333.187-1.015.187-2.046V4.5c0-1.344-.135-2.172-.406-2.484-.375-.417-1-.625-1.875-.625h-.75V.812h16.328l.234 4.641h-.609c-.219-1.114-.464-1.88-.735-2.297-.26-.416-.651-.734-1.171-.953-.417-.156-1.151-.234-2.203-.234h-5.813zM161.125 22h-5.656l-7.172-9.906c-.531.02-.964.031-1.297.031h-.438l-.484-.031v6.156c0 1.333.146 2.162.438 2.484.395.459.989.688 1.781.688h.828V22h-9.078v-.578h.797c.896 0 1.536-.292 1.922-.875.218-.323.328-1.089.328-2.297V4.562c0-1.333-.146-2.161-.438-2.484-.406-.458-1.01-.687-1.812-.687h-.797V.812h7.719c2.25 0 3.906.167 4.968.5a5.57 5.57 0 012.719 1.813c.75.875 1.125 1.922 1.125 3.14 0 1.303-.427 2.433-1.281 3.391-.844.959-2.156 1.636-3.938 2.031l4.375 6.079c1 1.396 1.86 2.323 2.578 2.78.719.46 1.657.75 2.813.876V22zm-15.047-10.89c.198 0 .37.005.516.015h.359c2.021 0 3.542-.438 4.563-1.313 1.031-.874 1.546-1.99 1.546-3.343 0-1.323-.416-2.396-1.25-3.219-.822-.833-1.916-1.25-3.281-1.25-.604 0-1.422.099-2.453.297v8.812z" fill="#fff"/></svg>