<svg width="162" height="23" viewBox="0 0 162 23" fill="none" xmlns="http://www.w3.org/2000/svg">
<path d="M18.6406 0.328125L19.1875 7.01562H18.6406C18.0885 5.34896 17.375 4.09375 16.5 3.25C15.2396 2.03125 13.6198 1.42188 11.6406 1.42188C8.94271 1.42188 6.89062 2.48958 5.48438 4.625C4.30729 6.42708 3.71875 8.57292 3.71875 11.0625C3.71875 13.0833 4.10938 14.9271 4.89062 16.5938C5.67188 18.2604 6.69271 19.4844 7.95312 20.2656C9.22396 21.0365 10.526 21.4219 11.8594 21.4219C12.6406 21.4219 13.3958 21.3229 14.125 21.125C14.8542 20.9271 15.5573 20.6354 16.2344 20.25V14.125C16.2344 13.0625 16.151 12.3698 15.9844 12.0469C15.8281 11.7135 15.5781 11.4635 15.2344 11.2969C14.901 11.1198 14.3073 11.0312 13.4531 11.0312V10.4375H21.6562V11.0312H21.2656C20.4531 11.0312 19.8958 11.3021 19.5938 11.8438C19.3854 12.2292 19.2812 12.9896 19.2812 14.125V20.6094C18.0833 21.2552 16.901 21.7292 15.7344 22.0312C14.5677 22.3333 13.2708 22.4844 11.8438 22.4844C7.75 22.4844 4.64062 21.1719 2.51562 18.5469C0.921875 16.5781 0.125 14.3073 0.125 11.7344C0.125 9.86979 0.572917 8.08333 1.46875 6.375C2.53125 4.34375 3.98958 2.78125 5.84375 1.6875C7.39583 0.78125 9.22917 0.328125 11.3438 0.328125C12.1146 0.328125 12.8125 0.390625 13.4375 0.515625C14.0729 0.640625 14.9688 0.916667 16.125 1.34375C16.7083 1.5625 17.099 1.67188 17.2969 1.67188C17.4948 1.67188 17.6615 1.58333 17.7969 1.40625C17.9427 1.21875 18.0312 0.859375 18.0625 0.328125H18.6406ZM37.3906 1.39062V0.8125H44.8906V1.39062H44.0938C43.2604 1.39062 42.6198 1.73958 42.1719 2.4375C41.9531 2.76042 41.8438 3.51042 41.8438 4.6875V13.2812C41.8438 15.4062 41.6302 17.0573 41.2031 18.2344C40.7865 19.401 39.9583 20.4062 38.7188 21.25C37.4896 22.0833 35.8125 22.5 33.6875 22.5C31.375 22.5 29.6198 22.099 28.4219 21.2969C27.224 20.4948 26.375 19.4167 25.875 18.0625C25.5417 17.1354 25.375 15.3958 25.375 12.8438V4.5625C25.375 3.26042 25.1927 2.40625 24.8281 2C24.474 1.59375 23.8958 1.39062 23.0938 1.39062H22.2969V0.8125H31.4531V1.39062H30.6406C29.7656 1.39062 29.1406 1.66667 28.7656 2.21875C28.5052 2.59375 28.375 3.375 28.375 4.5625V13.7969C28.375 14.6198 28.4479 15.5625 28.5938 16.625C28.75 17.6875 29.026 18.5156 29.4219 19.1094C29.8177 19.7031 30.3854 20.1927 31.125 20.5781C31.875 20.9635 32.7917 21.1562 33.875 21.1562C35.2604 21.1562 36.5 20.8542 37.5938 20.25C38.6875 19.6458 39.4323 18.875 39.8281 17.9375C40.2344 16.9896 40.4375 15.3906 40.4375 13.1406V4.5625C40.4375 3.23958 40.2917 2.41146 40 2.07812C39.5938 1.61979 38.9896 1.39062 38.1875 1.39062H37.3906ZM63.7656 0.8125L64 5.78125H63.4062C63.2917 4.90625 63.1354 4.28125 62.9375 3.90625C62.6146 3.30208 62.1823 2.85938 61.6406 2.57812C61.1094 2.28646 60.4062 2.14062 59.5312 2.14062H56.5469V18.3281C56.5469 19.6302 56.6875 20.4427 56.9688 20.7656C57.3646 21.2031 57.974 21.4219 58.7969 21.4219H59.5312V22H50.5469V21.4219H51.2969C52.1927 21.4219 52.8281 21.151 53.2031 20.6094C53.4323 20.276 53.5469 19.5156 53.5469 18.3281V2.14062H51C50.0104 2.14062 49.3073 2.21354 48.8906 2.35938C48.349 2.55729 47.8854 2.9375 47.5 3.5C47.1146 4.0625 46.8854 4.82292 46.8125 5.78125H46.2188L46.4688 0.8125H63.7656ZM74.6875 21.4219V22H65.6094V21.4219H66.3594C67.2344 21.4219 67.8698 21.1667 68.2656 20.6562C68.5156 20.3229 68.6406 19.5208 68.6406 18.25V4.5625C68.6406 3.48958 68.5729 2.78125 68.4375 2.4375C68.3333 2.17708 68.1198 1.95312 67.7969 1.76562C67.3385 1.51562 66.8594 1.39062 66.3594 1.39062H65.6094V0.8125H74.6875V1.39062H73.9219C73.0573 1.39062 72.4271 1.64583 72.0312 2.15625C71.7708 2.48958 71.6406 3.29167 71.6406 4.5625V18.25C71.6406 19.3229 71.7083 20.0312 71.8438 20.375C71.9479 20.6354 72.1667 20.8594 72.5 21.0469C72.9479 21.2969 73.4219 21.4219 73.9219 21.4219H74.6875ZM94.7344 0.328125L95.2188 7.53125H94.7344C94.0885 5.375 93.1667 3.82292 91.9688 2.875C90.7708 1.92708 89.3333 1.45312 87.6562 1.45312C86.25 1.45312 84.9792 1.8125 83.8438 2.53125C82.7083 3.23958 81.8125 4.375 81.1562 5.9375C80.5104 7.5 80.1875 9.44271 80.1875 11.7656C80.1875 13.6823 80.4948 15.3438 81.1094 16.75C81.724 18.1562 82.6458 19.2344 83.875 19.9844C85.1146 20.7344 86.526 21.1094 88.1094 21.1094C89.4844 21.1094 90.6979 20.8177 91.75 20.2344C92.8021 19.6406 93.9583 18.4688 95.2188 16.7188L95.7031 17.0312C94.6406 18.9167 93.401 20.2969 91.9844 21.1719C90.5677 22.0469 88.8854 22.4844 86.9375 22.4844C83.4271 22.4844 80.7083 21.1823 78.7812 18.5781C77.3438 16.6406 76.625 14.3594 76.625 11.7344C76.625 9.61979 77.099 7.67708 78.0469 5.90625C78.9948 4.13542 80.2969 2.76562 81.9531 1.79688C83.6198 0.817708 85.4375 0.328125 87.4062 0.328125C88.9375 0.328125 90.4479 0.703125 91.9375 1.45312C92.375 1.68229 92.6875 1.79688 92.875 1.79688C93.1562 1.79688 93.401 1.69792 93.6094 1.5C93.8802 1.21875 94.0729 0.828125 94.1875 0.328125H94.7344ZM103.391 10.6406H113.234V4.57812C113.234 3.49479 113.167 2.78125 113.031 2.4375C112.927 2.17708 112.708 1.95312 112.375 1.76562C111.927 1.51562 111.453 1.39062 110.953 1.39062H110.203V0.8125H119.266V1.39062H118.516C118.016 1.39062 117.542 1.51042 117.094 1.75C116.76 1.91667 116.531 2.17188 116.406 2.51562C116.292 2.84896 116.234 3.53646 116.234 4.57812V18.25C116.234 19.3229 116.302 20.0312 116.438 20.375C116.542 20.6354 116.755 20.8594 117.078 21.0469C117.536 21.2969 118.016 21.4219 118.516 21.4219H119.266V22H110.203V21.4219H110.953C111.818 21.4219 112.448 21.1667 112.844 20.6562C113.104 20.3229 113.234 19.5208 113.234 18.25V11.7969H103.391V18.25C103.391 19.3229 103.458 20.0312 103.594 20.375C103.698 20.6354 103.917 20.8594 104.25 21.0469C104.698 21.2969 105.172 21.4219 105.672 21.4219H106.438V22H97.3594V21.4219H98.1094C98.9844 21.4219 99.6198 21.1667 100.016 20.6562C100.266 20.3229 100.391 19.5208 100.391 18.25V4.57812C100.391 3.49479 100.323 2.78125 100.188 2.4375C100.083 2.17708 99.8698 1.95312 99.5469 1.76562C99.0885 1.51562 98.6094 1.39062 98.1094 1.39062H97.3594V0.8125H106.438V1.39062H105.672C105.172 1.39062 104.698 1.51042 104.25 1.75C103.927 1.91667 103.703 2.17188 103.578 2.51562C103.453 2.84896 103.391 3.53646 103.391 4.57812V10.6406ZM126.625 1.96875V10.3438H131.281C132.49 10.3438 133.297 10.1615 133.703 9.79688C134.245 9.31771 134.547 8.47396 134.609 7.26562H135.188V14.6406H134.609C134.464 13.6094 134.318 12.9479 134.172 12.6562C133.984 12.2917 133.677 12.0052 133.25 11.7969C132.823 11.5885 132.167 11.4844 131.281 11.4844H126.625V18.4688C126.625 19.4062 126.667 19.9792 126.75 20.1875C126.833 20.3854 126.979 20.5469 127.188 20.6719C127.396 20.7865 127.792 20.8438 128.375 20.8438H131.969C133.167 20.8438 134.036 20.7604 134.578 20.5938C135.12 20.4271 135.641 20.099 136.141 19.6094C136.786 18.9635 137.448 17.9896 138.125 16.6875H138.75L136.922 22H120.594V21.4219H121.344C121.844 21.4219 122.318 21.3021 122.766 21.0625C123.099 20.8958 123.323 20.6458 123.438 20.3125C123.562 19.9792 123.625 19.2969 123.625 18.2656V4.5C123.625 3.15625 123.49 2.32812 123.219 2.01562C122.844 1.59896 122.219 1.39062 121.344 1.39062H120.594V0.8125H136.922L137.156 5.45312H136.547C136.328 4.33854 136.083 3.57292 135.812 3.15625C135.552 2.73958 135.161 2.42188 134.641 2.20312C134.224 2.04688 133.49 1.96875 132.438 1.96875H126.625ZM161.125 22H155.469L148.297 12.0938C147.766 12.1146 147.333 12.125 147 12.125C146.865 12.125 146.719 12.125 146.562 12.125C146.406 12.1146 146.245 12.1042 146.078 12.0938V18.25C146.078 19.5833 146.224 20.4115 146.516 20.7344C146.911 21.1927 147.505 21.4219 148.297 21.4219H149.125V22H140.047V21.4219H140.844C141.74 21.4219 142.38 21.1302 142.766 20.5469C142.984 20.224 143.094 19.4583 143.094 18.25V4.5625C143.094 3.22917 142.948 2.40104 142.656 2.07812C142.25 1.61979 141.646 1.39062 140.844 1.39062H140.047V0.8125H147.766C150.016 0.8125 151.672 0.979167 152.734 1.3125C153.807 1.63542 154.714 2.23958 155.453 3.125C156.203 4 156.578 5.04688 156.578 6.26562C156.578 7.56771 156.151 8.69792 155.297 9.65625C154.453 10.6146 153.141 11.2917 151.359 11.6875L155.734 17.7656C156.734 19.1615 157.594 20.0885 158.312 20.5469C159.031 21.0052 159.969 21.2969 161.125 21.4219V22ZM146.078 11.1094C146.276 11.1094 146.448 11.1146 146.594 11.125C146.74 11.125 146.859 11.125 146.953 11.125C148.974 11.125 150.495 10.6875 151.516 9.8125C152.547 8.9375 153.062 7.82292 153.062 6.46875C153.062 5.14583 152.646 4.07292 151.812 3.25C150.99 2.41667 149.896 2 148.531 2C147.927 2 147.109 2.09896 146.078 2.29688V11.1094Z" fill="#212121"/>
</svg>
