<svg width="22" height="16" viewBox="0 0 22 16" fill="none" xmlns="http://www.w3.org/2000/svg">
<path d="M4.325 14.925C4.10833 14.925 3.71667 14.8333 3.15 14.65C2.6 14.4667 2.20833 14.275 1.975 14.075C0.841667 13.1083 0.275 11.7917 0.275 10.125C0.275 9.80833 0.308334 9.4 0.375 8.9C0.558334 7.83333 0.941667 6.775 1.525 5.725C2.125 4.65833 2.825 3.775 3.625 3.075C4.54167 2.25833 5.44167 1.74167 6.325 1.525C6.55833 1.45833 7.05 1.425 7.8 1.425C8.11667 1.425 8.48333 1.5 8.9 1.65C9.31667 1.78333 9.675 1.95 9.975 2.15C10.275 2.33333 10.425 2.50833 10.425 2.675C10.425 2.84167 10.4083 2.96667 10.375 3.05C10.3583 3.13333 10.2917 3.15 10.175 3.1H9.925L10.175 3.85C10.2417 4 10.3 4.18333 10.35 4.4C10.4 4.61667 10.425 4.81667 10.425 5C10.425 5.33333 10.3417 5.925 10.175 6.775C10.0083 7.625 9.86667 8.2 9.75 8.5C9.68333 8.63333 9.65 8.80833 9.65 9.025C9.58333 9.14167 9.45 9.43333 9.25 9.9L9 10.425C8.93333 10.475 8.88333 10.5333 8.85 10.6C8.81667 10.6667 8.825 10.725 8.875 10.775C8.875 10.8583 8.79167 11.0583 8.625 11.375C8.45833 11.675 8.34167 11.825 8.275 11.825C8.25833 11.825 8.23333 11.8333 8.2 11.85C8.16667 11.85 8.15 11.875 8.15 11.925C8.15 11.9917 8.03333 12.175 7.8 12.475C7.56667 12.7583 7.30833 13.0417 7.025 13.325C6.75833 13.6083 6.3 13.95 5.65 14.35C5.01667 14.7333 4.575 14.925 4.325 14.925ZM4.275 12.525C4.675 12.525 4.99167 12.4083 5.225 12.175C5.89167 11.725 6.40833 11.075 6.775 10.225C6.94167 9.99167 7.075 9.75 7.175 9.5C7.29167 9.25 7.475 8.75833 7.725 8.025C7.84167 7.85833 7.925 7.65 7.975 7.4C8.04167 7.13333 8.075 6.89167 8.075 6.675C8.075 5.94167 8.11667 5.425 8.2 5.125C8.2 4.69167 8.19167 4.44167 8.175 4.375C8.15833 4.30833 8.09167 4.2 7.975 4.05C7.79167 3.9 7.59167 3.825 7.375 3.825C7.24167 3.825 7.075 3.85833 6.875 3.925C6.69167 3.975 6.54167 4.04167 6.425 4.125C6.325 4.15833 6.25 4.175 6.2 4.175C6.1 4.175 6.00833 4.15833 5.925 4.125C5.85833 4.075 5.825 4.01667 5.825 3.95C5.825 3.75 5.73333 3.74167 5.55 3.925C5.38333 4.09167 5.06667 4.46667 4.6 5.05C4.33333 5.31667 4.08333 5.61667 3.85 5.95C3.63333 6.26667 3.525 6.45833 3.525 6.525C3.525 6.575 3.49167 6.66667 3.425 6.8C3.375 6.93333 3.33333 7.04167 3.3 7.125C3.18333 7.30833 3.025 7.63333 2.825 8.1C2.625 8.55 2.5 8.875 2.45 9.075V10.425C2.45 10.7917 2.45833 11.0333 2.475 11.15C2.50833 11.2667 2.55 11.3833 2.6 11.5C2.66667 11.6167 2.71667 11.7 2.75 11.75C2.81667 11.8667 2.925 12.0083 3.075 12.175C3.225 12.3417 3.31667 12.45 3.35 12.5C3.48333 12.6333 3.59167 12.7 3.675 12.7C3.725 12.7 3.8 12.6833 3.9 12.65C4 12.6 4.125 12.5583 4.275 12.525ZM17.3299 15.45C17.2632 15.4833 17.1882 15.5 17.1049 15.5C16.9215 15.5 16.6966 15.4583 16.4299 15.375C16.1799 15.2917 15.9965 15.1917 15.8799 15.075C15.7799 14.9917 15.7049 14.9083 15.6549 14.825C15.6049 14.7417 15.5799 14.6 15.5799 14.4C15.5799 14.1333 15.6382 13.7417 15.7549 13.225C15.8382 12.825 15.9549 12.3667 16.1049 11.85C16.2549 11.3167 16.3549 10.975 16.4049 10.825C16.5382 10.7583 16.8382 9.94167 17.3049 8.375C17.5549 7.475 17.8382 6.55 18.1549 5.6C18.2882 5.2 18.4132 4.86667 18.5299 4.6C18.6632 4.31667 18.7466 4.14167 18.7799 4.075C18.6632 4.14167 18.3966 4.3 17.9799 4.55C17.5632 4.8 17.1382 5.09167 16.7049 5.425C16.5216 5.54167 16.2132 5.76667 15.7799 6.1C15.3132 6.46667 14.9715 6.70833 14.7549 6.825L14.3299 7.15C14.2799 7.18333 14.1882 7.25 14.0549 7.35C13.9382 7.45 13.8382 7.51667 13.7549 7.55C13.6882 7.58333 13.6299 7.6 13.5799 7.6C13.5132 7.6 13.4465 7.575 13.3799 7.525C13.1465 7.325 12.9382 7.05 12.7549 6.7C12.5715 6.35 12.5299 6.09167 12.6299 5.925C12.6632 5.90833 12.9882 5.675 13.6049 5.225C14.1882 4.80833 14.5715 4.54167 14.7549 4.425C14.7882 4.425 14.8799 4.36667 15.0299 4.25C15.1799 4.11667 15.3215 4.00833 15.4549 3.925C15.5049 3.85833 15.8965 3.56667 16.6299 3.05L17.9549 2.075C18.5215 1.725 19.0549 1.425 19.5549 1.175C20.0715 0.924999 20.3632 0.808333 20.4299 0.824999C20.5299 0.841666 20.7549 0.974999 21.1049 1.225C21.4549 1.45833 21.6382 1.64167 21.6549 1.775C21.6882 1.84167 21.7049 1.9 21.7049 1.95C21.7049 2.06667 21.6382 2.275 21.5049 2.575C21.3549 2.89167 21.0799 3.625 20.6799 4.775C20.2966 5.925 20.0049 6.83333 19.8049 7.5C19.6882 7.93333 19.5132 8.46667 19.2799 9.1C19.2299 9.25 19.1549 9.46667 19.0549 9.75C18.9715 10.0167 18.8965 10.2917 18.8299 10.575C18.6799 10.9417 18.5132 11.45 18.3299 12.1C18.1466 12.75 18.0049 13.3 17.9049 13.75C17.7882 14.0667 17.6882 14.3833 17.6049 14.7C17.4882 15.1333 17.3965 15.3833 17.3299 15.45Z" fill="#1B1C1B"/>
</svg>
