<svg width="22" height="14" viewBox="0 0 22 14" fill="none" xmlns="http://www.w3.org/2000/svg">
<path d="M4.325 13.925C4.10833 13.925 3.71667 13.8333 3.15 13.65C2.6 13.4667 2.20833 13.275 1.975 13.075C0.841667 12.1083 0.275 10.7917 0.275 9.125C0.275 8.80833 0.308334 8.4 0.375 7.9C0.558334 6.83333 0.941667 5.775 1.525 4.725C2.125 3.65833 2.825 2.775 3.625 2.075C4.54167 1.25833 5.44167 0.741666 6.325 0.524999C6.55833 0.458332 7.05 0.424999 7.8 0.424999C8.11667 0.424999 8.48333 0.499999 8.9 0.649999C9.31667 0.783333 9.675 0.95 9.975 1.15C10.275 1.33333 10.425 1.50833 10.425 1.675C10.425 1.84167 10.4083 1.96667 10.375 2.05C10.3583 2.13333 10.2917 2.15 10.175 2.1H9.925L10.175 2.85C10.2417 3 10.3 3.18333 10.35 3.4C10.4 3.61667 10.425 3.81667 10.425 4C10.425 4.33333 10.3417 4.925 10.175 5.775C10.0083 6.625 9.86667 7.2 9.75 7.5C9.68333 7.63333 9.65 7.80833 9.65 8.025C9.58333 8.14167 9.45 8.43333 9.25 8.9L9 9.425C8.93333 9.475 8.88333 9.53333 8.85 9.6C8.81667 9.66667 8.825 9.725 8.875 9.775C8.875 9.85833 8.79167 10.0583 8.625 10.375C8.45833 10.675 8.34167 10.825 8.275 10.825C8.25833 10.825 8.23333 10.8333 8.2 10.85C8.16667 10.85 8.15 10.875 8.15 10.925C8.15 10.9917 8.03333 11.175 7.8 11.475C7.56667 11.7583 7.30833 12.0417 7.025 12.325C6.75833 12.6083 6.3 12.95 5.65 13.35C5.01667 13.7333 4.575 13.925 4.325 13.925ZM4.275 11.525C4.675 11.525 4.99167 11.4083 5.225 11.175C5.89167 10.725 6.40833 10.075 6.775 9.225C6.94167 8.99167 7.075 8.75 7.175 8.5C7.29167 8.25 7.475 7.75833 7.725 7.025C7.84167 6.85833 7.925 6.65 7.975 6.4C8.04167 6.13333 8.075 5.89167 8.075 5.675C8.075 4.94167 8.11667 4.425 8.2 4.125C8.2 3.69167 8.19167 3.44167 8.175 3.375C8.15833 3.30833 8.09167 3.2 7.975 3.05C7.79167 2.9 7.59167 2.825 7.375 2.825C7.24167 2.825 7.075 2.85833 6.875 2.925C6.69167 2.975 6.54167 3.04167 6.425 3.125C6.325 3.15833 6.25 3.175 6.2 3.175C6.1 3.175 6.00833 3.15833 5.925 3.125C5.85833 3.075 5.825 3.01667 5.825 2.95C5.825 2.75 5.73333 2.74167 5.55 2.925C5.38333 3.09167 5.06667 3.46667 4.6 4.05C4.33333 4.31667 4.08333 4.61667 3.85 4.95C3.63333 5.26667 3.525 5.45833 3.525 5.525C3.525 5.575 3.49167 5.66667 3.425 5.8C3.375 5.93333 3.33333 6.04167 3.3 6.125C3.18333 6.30833 3.025 6.63333 2.825 7.1C2.625 7.55 2.5 7.875 2.45 8.075V9.425C2.45 9.79167 2.45833 10.0333 2.475 10.15C2.50833 10.2667 2.55 10.3833 2.6 10.5C2.66667 10.6167 2.71667 10.7 2.75 10.75C2.81667 10.8667 2.925 11.0083 3.075 11.175C3.225 11.3417 3.31667 11.45 3.35 11.5C3.48333 11.6333 3.59167 11.7 3.675 11.7C3.725 11.7 3.8 11.6833 3.9 11.65C4 11.6 4.125 11.5583 4.275 11.525ZM12.3049 13.8C12.2049 13.7667 12.0132 13.6 11.7299 13.3C11.4465 12.9833 11.2715 12.7417 11.2049 12.575C11.1882 12.5583 11.1799 12.5083 11.1799 12.425C11.1799 12.3083 11.2049 12.175 11.2549 12.025C11.3049 11.875 11.3549 11.8 11.4049 11.8C11.4549 11.85 11.5549 11.725 11.7049 11.425C11.8715 11.125 11.9632 10.925 11.9799 10.825C11.9965 10.7583 12.0465 10.7 12.1299 10.65C12.2299 10.5833 12.2965 10.5417 12.3299 10.525C12.4132 10.3917 12.5299 10.25 12.6799 10.1C12.8465 9.93333 12.9549 9.81667 13.0049 9.75C13.0715 9.66667 13.1965 9.53333 13.3799 9.35C13.5632 9.15 13.7299 8.975 13.8799 8.825C14.2799 8.45833 14.5715 8.175 14.7549 7.975C15.6215 7.04167 16.0715 6.5 16.1049 6.35C16.1216 6.33333 16.1549 6.3 16.2049 6.25C16.2549 6.2 16.3215 6.15 16.4049 6.1C16.6549 5.93333 16.8882 5.74167 17.1049 5.525C17.1549 5.275 17.3799 4.95 17.7799 4.55C17.9132 4.36667 18.0299 4.16667 18.1299 3.95C18.2465 3.71667 18.3299 3.51667 18.3799 3.35C18.4299 3.18333 18.4215 3.075 18.3549 3.025C18.2882 2.975 18.0549 2.89167 17.6549 2.775C17.3716 2.69167 17.1382 2.65 16.9549 2.65C16.7049 2.65 16.4382 2.71667 16.1549 2.85C15.8882 2.96667 15.5465 3.16667 15.1299 3.45C14.8965 3.5 14.7132 3.55833 14.5799 3.625C14.2799 3.725 14.0882 3.76667 14.0049 3.75C13.9549 3.73333 13.8799 3.65833 13.7799 3.525C13.6799 3.39167 13.5882 3.28333 13.5049 3.2L13.2549 2.125L14.0299 1.7C15.2632 0.916666 16.2715 0.524999 17.0549 0.524999C17.2549 0.524999 17.4466 0.549999 17.6299 0.6C17.7799 0.6 17.9299 0.616666 18.0799 0.649999C18.2299 0.683333 18.3215 0.708333 18.3549 0.725C18.5716 0.708333 18.9049 0.866666 19.3549 1.2C19.8049 1.53333 20.1049 1.86667 20.2549 2.2C20.4716 2.55 20.5799 2.925 20.5799 3.325C20.5799 3.975 20.3299 4.675 19.8299 5.425C19.4632 5.85833 18.9049 6.48333 18.1549 7.3C17.4049 8.11667 16.9465 8.59167 16.7799 8.725C16.5799 8.825 16.0966 9.28333 15.3299 10.1C14.5632 10.9 14.2132 11.3 14.2799 11.3C14.2632 11.3667 14.3632 11.3583 14.5799 11.275C14.8132 11.1917 14.9715 11.1333 15.0549 11.1C15.4382 10.9667 15.9382 10.85 16.5549 10.75C17.1715 10.6333 17.6549 10.575 18.0049 10.575C18.1715 10.575 18.2882 10.5917 18.3549 10.625C18.3882 10.6917 18.4132 10.725 18.4299 10.725C18.4632 10.7083 18.4799 10.6917 18.4799 10.675C18.4965 10.6083 18.6132 10.575 18.8299 10.575C19.2132 10.575 19.6632 10.65 20.1799 10.8C20.3466 10.85 20.4882 10.9167 20.6049 11C20.7216 11.0833 20.7799 11.1583 20.7799 11.225C20.7966 11.2417 20.8216 11.2917 20.8549 11.375C20.9049 11.4417 20.9716 11.525 21.0549 11.625C21.1882 11.725 21.2549 11.85 21.2549 12C21.2549 12.15 21.1632 12.2833 20.9799 12.4C20.7965 12.5167 20.5466 12.575 20.2299 12.575C19.9966 12.575 19.8132 12.5583 19.6799 12.525C19.2466 12.525 18.8882 12.55 18.6049 12.6C18.5549 12.6333 18.3965 12.6583 18.1299 12.675C17.8799 12.675 17.6882 12.675 17.5549 12.675C17.4715 12.6583 17.3549 12.65 17.2049 12.65C16.8215 12.65 16.2799 12.7667 15.5799 13C15.2132 13.15 14.6132 13.3333 13.7799 13.55C12.9465 13.7667 12.4549 13.85 12.3049 13.8Z" fill="#1B1C1B"/>
</svg>
