<svg width="22" height="14" viewBox="0 0 22 14" fill="none" xmlns="http://www.w3.org/2000/svg">
<path d="M4.325 13.925C4.10833 13.925 3.71667 13.8333 3.15 13.65C2.6 13.4667 2.20833 13.275 1.975 13.075C0.841667 12.1083 0.275 10.7917 0.275 9.125C0.275 8.80833 0.308334 8.4 0.375 7.9C0.558334 6.83333 0.941667 5.775 1.525 4.725C2.125 3.65833 2.825 2.775 3.625 2.075C4.54167 1.25833 5.44167 0.741666 6.325 0.524999C6.55833 0.458332 7.05 0.424999 7.8 0.424999C8.11667 0.424999 8.48333 0.499999 8.9 0.649999C9.31667 0.783333 9.675 0.95 9.975 1.15C10.275 1.33333 10.425 1.50833 10.425 1.675C10.425 1.84167 10.4083 1.96667 10.375 2.05C10.3583 2.13333 10.2917 2.15 10.175 2.1H9.925L10.175 2.85C10.2417 3 10.3 3.18333 10.35 3.4C10.4 3.61667 10.425 3.81667 10.425 4C10.425 4.33333 10.3417 4.925 10.175 5.775C10.0083 6.625 9.86667 7.2 9.75 7.5C9.68333 7.63333 9.65 7.80833 9.65 8.025C9.58333 8.14167 9.45 8.43333 9.25 8.9L9 9.425C8.93333 9.475 8.88333 9.53333 8.85 9.6C8.81667 9.66667 8.825 9.725 8.875 9.775C8.875 9.85833 8.79167 10.0583 8.625 10.375C8.45833 10.675 8.34167 10.825 8.275 10.825C8.25833 10.825 8.23333 10.8333 8.2 10.85C8.16667 10.85 8.15 10.875 8.15 10.925C8.15 10.9917 8.03333 11.175 7.8 11.475C7.56667 11.7583 7.30833 12.0417 7.025 12.325C6.75833 12.6083 6.3 12.95 5.65 13.35C5.01667 13.7333 4.575 13.925 4.325 13.925ZM4.275 11.525C4.675 11.525 4.99167 11.4083 5.225 11.175C5.89167 10.725 6.40833 10.075 6.775 9.225C6.94167 8.99167 7.075 8.75 7.175 8.5C7.29167 8.25 7.475 7.75833 7.725 7.025C7.84167 6.85833 7.925 6.65 7.975 6.4C8.04167 6.13333 8.075 5.89167 8.075 5.675C8.075 4.94167 8.11667 4.425 8.2 4.125C8.2 3.69167 8.19167 3.44167 8.175 3.375C8.15833 3.30833 8.09167 3.2 7.975 3.05C7.79167 2.9 7.59167 2.825 7.375 2.825C7.24167 2.825 7.075 2.85833 6.875 2.925C6.69167 2.975 6.54167 3.04167 6.425 3.125C6.325 3.15833 6.25 3.175 6.2 3.175C6.1 3.175 6.00833 3.15833 5.925 3.125C5.85833 3.075 5.825 3.01667 5.825 2.95C5.825 2.75 5.73333 2.74167 5.55 2.925C5.38333 3.09167 5.06667 3.46667 4.6 4.05C4.33333 4.31667 4.08333 4.61667 3.85 4.95C3.63333 5.26667 3.525 5.45833 3.525 5.525C3.525 5.575 3.49167 5.66667 3.425 5.8C3.375 5.93333 3.33333 6.04167 3.3 6.125C3.18333 6.30833 3.025 6.63333 2.825 7.1C2.625 7.55 2.5 7.875 2.45 8.075V9.425C2.45 9.79167 2.45833 10.0333 2.475 10.15C2.50833 10.2667 2.55 10.3833 2.6 10.5C2.66667 10.6167 2.71667 10.7 2.75 10.75C2.81667 10.8667 2.925 11.0083 3.075 11.175C3.225 11.3417 3.31667 11.45 3.35 11.5C3.48333 11.6333 3.59167 11.7 3.675 11.7C3.725 11.7 3.8 11.6833 3.9 11.65C4 11.6 4.125 11.5583 4.275 11.525ZM14.3549 13.975C13.9549 13.975 13.5549 13.9 13.1549 13.75C12.7549 13.6 12.4382 13.4167 12.2049 13.2C11.9715 12.9667 11.8632 12.75 11.8799 12.55C11.9132 12.0167 12.1965 11.75 12.7299 11.75L12.9549 11.775C13.4215 11.8583 13.8465 11.9 14.2299 11.9C14.9132 11.9 15.5465 11.8083 16.1299 11.625C16.7299 11.425 17.2049 11.15 17.5549 10.8C18.0215 10.3333 18.2549 9.95833 18.2549 9.675C18.2549 9.35833 18.0215 9.05 17.5549 8.75C17.2216 8.51667 16.7966 8.31667 16.2799 8.15C15.7632 7.98333 15.3382 7.90833 15.0049 7.925C14.7549 7.95833 14.3549 7.83333 13.8049 7.55C13.7049 7.45 13.6132 7.26667 13.5299 7C13.4465 6.71667 13.3882 6.54167 13.3549 6.475C13.3215 6.35833 13.4882 6.175 13.8549 5.925C14.2215 5.675 14.9632 5.25 16.0799 4.65L17.1799 4.05C17.6799 3.78333 18.0799 3.55833 18.3799 3.375C18.6966 3.19167 18.9382 3.025 19.1049 2.875C19.2882 2.65833 19.3799 2.50833 19.3799 2.425C19.3799 2.34167 19.3299 2.275 19.2299 2.225C19.1299 2.15833 18.9549 2.1 18.7049 2.05C18.5549 2.03333 18.3465 2.025 18.0799 2.025C17.5799 2.025 17.3299 2.075 17.3299 2.175H17.2299C17.1132 2.125 16.7882 2.15833 16.2549 2.275C15.7382 2.39167 15.4715 2.48333 15.4549 2.55C15.4382 2.6 15.2299 2.68333 14.8299 2.8C14.4299 2.91667 14.1882 2.975 14.1049 2.975C13.9882 2.94167 13.8465 2.725 13.6799 2.325C13.5132 1.925 13.4549 1.65833 13.5049 1.525C13.5382 1.425 13.7549 1.25 14.1549 0.999999C14.5549 0.749999 14.9215 0.549999 15.2549 0.399999C15.6049 0.316666 16.1799 0.233333 16.9799 0.149999C17.7966 0.0499998 18.3549 0.00833317 18.6549 0.0249996C19.4549 0.108333 20.0799 0.316666 20.5299 0.649999C20.9799 0.966666 21.2715 1.44167 21.4049 2.075C21.4382 2.24167 21.4549 2.36667 21.4549 2.45C21.4549 3.05 21.0799 3.69167 20.3299 4.375C19.8299 4.70833 19.5799 4.875 19.5799 4.875C19.1132 5.20833 18.7382 5.44167 18.4549 5.575C18.3049 5.69167 17.9716 5.84167 17.4549 6.025C17.0716 6.175 16.8799 6.26667 16.8799 6.3C16.9799 6.31667 17.1715 6.35 17.4549 6.4C17.7382 6.45 17.9382 6.525 18.0549 6.625C18.4716 6.775 18.8799 7.03333 19.2799 7.4C19.6799 7.76667 20.0049 8.11667 20.2549 8.45C20.3882 8.75 20.4549 9.05 20.4549 9.35C20.4549 10.05 20.2049 10.7667 19.7049 11.5C19.2049 12.2167 18.5966 12.7833 17.8799 13.2C17.1632 13.6 15.9882 13.8583 14.3549 13.975Z" fill="#1B1C1B"/>
</svg>
