<svg width="6" height="4" viewBox="0 0 6 4" fill="none" xmlns="http://www.w3.org/2000/svg">
<path d="M3.00127 2.57796L0.756585 0.333377C0.694927 0.271572 0.612488 0.237572 0.524585 0.237572C0.436634 0.237572 0.354244 0.271572 0.292488 0.333377L0.0959024 0.53006C0.0340488 0.591767 0 0.674255 0 0.762157C0 0.85006 0.0340488 0.93245 0.0959024 0.994206L2.76839 3.66674C2.83034 3.72874 2.91312 3.76269 3.00112 3.76245C3.08951 3.76269 3.1722 3.72879 3.2342 3.66674L5.9041 0.996694C5.96595 0.934938 6 0.852548 6 0.764597C6 0.676694 5.96595 0.594304 5.9041 0.532499L5.70751 0.335865C5.57956 0.207914 5.37127 0.207914 5.24337 0.335865L3.00127 2.57796Z" fill="black"/>
</svg>
