<svg width="15" height="18" viewBox="0 0 15 18" fill="none" xmlns="http://www.w3.org/2000/svg">
<path d="M1.26906 4.55371H3.10596C2.89402 5.55311 2.81249 6.5906 2.81249 7.59184C2.81249 7.88946 3.05393 8.13089 3.35154 8.13089C3.64915 8.13089 3.89059 7.88946 3.89059 7.59184C3.89059 6.59443 3.97472 5.54718 4.20715 4.55371H10.4843C10.7167 5.54718 10.8008 6.59443 10.8008 7.59184C10.8008 7.88946 11.0423 8.13089 11.3399 8.13089C11.6375 8.13089 11.8789 7.88946 11.8789 7.59184C11.8789 6.5906 11.7974 5.55311 11.5855 4.55371H13.5025C13.6475 4.55371 13.7658 4.66828 13.7718 4.81185L14.7684 16.9587L14.7686 16.9587C14.7808 17.107 14.6704 17.2372 14.5221 17.2494C14.5145 17.25 14.507 17.2503 14.4996 17.2503H0.269532C0.120679 17.2503 0 17.1296 0 16.9807C0 16.9694 0.000702986 16.9582 0.00206921 16.9472L0.998581 4.80219L1.26706 4.82326L0.998435 4.80121C1.01004 4.65959 1.12921 4.55255 1.26907 4.55373L1.26906 4.55371Z" fill="white"/>
<path d="M3.08105 7.59162C3.08105 7.74048 3.20173 7.86115 3.35059 7.86115C3.49944 7.86115 3.62012 7.74048 3.62012 7.59162C3.62012 4.17171 4.6074 1.99787 5.87109 1.05942C6.33822 0.712534 6.84258 0.539077 7.34477 0.539077C7.84695 0.539077 8.35133 0.712535 8.81844 1.05944C10.0821 1.99785 11.0694 4.17166 11.0694 7.5916C11.0694 7.74045 11.1901 7.86113 11.3389 7.86113C11.4878 7.86113 11.6085 7.74045 11.6085 7.5916C11.6085 3.98234 10.5251 1.65746 9.13851 0.627749C8.57499 0.209258 7.96096 0 7.34477 0C6.7286 0 6.11456 0.209245 5.55102 0.627736C4.16439 1.65747 3.08105 3.98237 3.08105 7.59159V7.59162Z" fill="white"/>
</svg>
