<svg width="18" height="18" viewBox="0 0 18 18" fill="none" xmlns="http://www.w3.org/2000/svg">
<g clip-path="url(#clip0)">
<path d="M17.65 14.3129L15.6545 12.9825L13.8806 11.8001C13.5382 11.5723 13.0781 11.647 12.8254 11.9714L11.7277 13.3825C11.4919 13.6887 11.0678 13.7767 10.7296 13.5895C9.98484 13.1752 9.10408 12.7851 7.16073 10.8392C5.21739 8.89341 4.82481 8.01515 4.41049 7.27033C4.22329 6.9322 4.31128 6.50805 4.61749 6.27229L6.02861 5.17462C6.35299 4.92192 6.4277 4.46184 6.19993 4.11946L5.05384 2.40016L3.68709 0.350012C3.45447 0.0010554 2.98879 -0.103709 2.62915 0.111972L1.0529 1.05759C0.626917 1.30857 0.313784 1.71385 0.178364 2.1894C-0.252682 3.76097 -0.339587 7.2278 5.21644 12.7838C10.7725 18.3399 14.239 18.2527 15.8105 17.8216C16.2861 17.6862 16.6914 17.3731 16.9424 16.9471L17.888 15.3708C18.1037 15.0112 17.9989 14.5455 17.65 14.3129Z" fill="#CEA469"/>
</g>
<defs>
<clipPath id="clip0">
<rect width="18" height="18" fill="white"/>
</clipPath>
</defs>
</svg>
