<svg width="48" height="48" viewBox="0 0 48 48" fill="none" xmlns="http://www.w3.org/2000/svg">
<g clip-path="url(#clip0)">
<path d="M41.489 2.167C40.385 2.167 39.489 3.063 39.489 4.167V5.834C35.193 2.088 29.714 0 23.875 0C10.71 0 0 10.749 0 23.96C0 25.064 0.896 25.96 2 25.96C3.104 25.96 4 25.064 4 23.96C4 12.954 12.916 4 23.875 4C28.682 4 33.198 5.702 36.758 8.759H34.925C33.821 8.759 32.925 9.655 32.925 10.759C32.925 11.863 33.821 12.759 34.925 12.759H41.489C42.593 12.759 43.489 11.863 43.489 10.759V4.167C43.489 3.063 42.593 2.167 41.489 2.167Z" fill="black"/>
<path d="M45.9998 22.0403C44.8958 22.0403 43.9998 22.9363 43.9998 24.0403C43.9998 35.0463 35.0838 44.0003 24.1248 44.0003C19.3738 44.0003 14.9058 42.3403 11.3658 39.3503H13.2868C14.3908 39.3503 15.2868 38.4543 15.2868 37.3503C15.2868 36.2463 14.3908 35.3503 13.2868 35.3503H6.7218C6.7038 35.3503 6.6878 35.3553 6.6708 35.3553C6.5948 35.3573 6.5198 35.3673 6.4438 35.3783C6.3878 35.3863 6.3318 35.3913 6.2768 35.4043C6.2108 35.4193 6.1458 35.4433 6.0808 35.4653C6.0208 35.4863 5.9598 35.5043 5.9018 35.5303C5.8468 35.5553 5.7948 35.5873 5.7418 35.6173C5.6788 35.6533 5.6168 35.6883 5.5578 35.7303C5.5428 35.7413 5.5258 35.7473 5.5108 35.7593C5.4768 35.7853 5.4508 35.8173 5.4188 35.8453C5.3658 35.8913 5.3128 35.9373 5.2648 35.9893C5.2198 36.0373 5.1808 36.0873 5.1418 36.1383C5.1028 36.1893 5.0648 36.2403 5.0298 36.2943C4.9948 36.3503 4.9648 36.4083 4.9358 36.4663C4.9068 36.5233 4.8798 36.5813 4.8568 36.6413C4.8338 36.7033 4.8158 36.7653 4.7988 36.8293C4.7828 36.8903 4.7658 36.9513 4.7558 37.0143C4.7438 37.0853 4.7388 37.1563 4.7338 37.2283C4.7308 37.2693 4.7218 37.3093 4.7218 37.3513V43.9433C4.7218 45.0473 5.6178 45.9433 6.7218 45.9433C7.8258 45.9433 8.7218 45.0473 8.7218 43.9433V42.3533C12.9848 45.9823 18.3818 48.0003 24.1248 48.0003C37.2898 48.0003 47.9998 37.2513 47.9998 24.0403C47.9998 22.9363 47.1038 22.0403 45.9998 22.0403Z" fill="black"/>
</g>
<defs>
<clipPath id="clip0">
<rect width="48" height="48" fill="white"/>
</clipPath>
</defs>
</svg>
