<svg width="22" height="16" fill="none" xmlns="http://www.w3.org/2000/svg"><path d="M4.325 14.925c-.217 0-.608-.092-1.175-.275-.55-.183-.942-.375-1.175-.575-1.133-.967-1.7-2.283-1.7-3.95 0-.317.033-.725.1-1.225.183-1.067.567-2.125 1.15-3.175.6-1.067 1.3-1.95 2.1-2.65.917-.817 1.817-1.333 2.7-1.55.233-.067.725-.1 1.475-.1.317 0 .683.075 1.1.225.417.133.775.3 1.075.5.3.183.45.358.45.525 0 .167-.017.292-.05.375-.017.083-.083.1-.2.05h-.25l.25.75c.067.15.125.333.175.55.05.217.075.417.075.6 0 .333-.083.925-.25 1.775-.167.85-.308 1.425-.425 1.725-.067.133-.1.308-.1.525-.067.117-.2.408-.4.875l-.25.525a.496.496 0 00-.15.175c-.033.067-.025.125.025.175 0 .083-.083.283-.25.6-.167.3-.283.45-.35.45a.191.191 0 00-.075.025c-.033 0-.05.025-.05.075 0 .067-.117.25-.35.55-.233.283-.492.567-.775.85-.267.283-.725.625-1.375 1.025-.633.383-1.075.575-1.325.575zm-.05-2.4c.4 0 .717-.117.95-.35.667-.45 1.183-1.1 1.55-1.95.167-.233.3-.475.4-.725.117-.25.3-.742.55-1.475.117-.167.2-.375.25-.625a3 3 0 00.1-.725c0-.733.042-1.25.125-1.55 0-.433-.008-.683-.025-.75-.017-.067-.083-.175-.2-.325a.928.928 0 00-.6-.225c-.133 0-.3.033-.5.1-.183.05-.333.117-.45.2a.794.794 0 01-.225.05.734.734 0 01-.275-.05c-.067-.05-.1-.108-.1-.175 0-.2-.092-.208-.275-.025-.167.167-.483.542-.95 1.125a6.71 6.71 0 00-.75.9c-.217.317-.325.508-.325.575 0 .05-.033.142-.1.275-.05.133-.092.242-.125.325-.117.183-.275.508-.475.975-.2.45-.325.775-.375.975v1.35c0 .367.008.608.025.725.033.117.075.233.125.35.067.117.117.2.15.25.067.117.175.258.325.425.15.167.242.275.275.325.133.133.242.2.325.2.05 0 .125-.017.225-.05.1-.05.225-.092.375-.125zM17.33 15.45a.497.497 0 01-.225.05 2.34 2.34 0 01-.675-.125c-.25-.083-.434-.183-.55-.3a1.016 1.016 0 01-.225-.25c-.05-.083-.075-.225-.075-.425 0-.267.058-.658.175-1.175.083-.4.2-.858.35-1.375a30 30 0 01.3-1.025c.133-.067.433-.883.9-2.45.25-.9.533-1.825.85-2.775.133-.4.258-.733.375-1 .133-.283.217-.458.25-.525-.117.067-.383.225-.8.475-.417.25-.842.542-1.275.875-.183.117-.492.342-.925.675-.467.367-.808.608-1.025.725l-.425.325c-.05.033-.142.1-.275.2a1.16 1.16 0 01-.3.2.403.403 0 01-.175.05.332.332 0 01-.2-.075 2.75 2.75 0 01-.625-.825c-.184-.35-.225-.608-.125-.775.033-.017.358-.25.975-.7a33.93 33.93 0 011.15-.8c.033 0 .125-.058.275-.175a3.24 3.24 0 01.425-.325c.05-.067.441-.358 1.175-.875l1.325-.975c.567-.35 1.1-.65 1.6-.9.517-.25.808-.367.875-.35.1.017.325.15.675.4.35.233.533.417.55.55.033.067.05.125.05.175 0 .117-.067.325-.2.625-.15.317-.425 1.05-.825 2.2-.383 1.15-.675 2.058-.875 2.725-.117.433-.292.967-.525 1.6-.05.15-.125.367-.225.65a11.85 11.85 0 00-.225.825c-.15.367-.317.875-.5 1.525-.183.65-.325 1.2-.425 1.65a10.21 10.21 0 00-.3.95c-.117.433-.209.683-.275.75z" fill="#1B1C1B"/></svg>