<svg width="22" height="14" fill="none" xmlns="http://www.w3.org/2000/svg"><path d="M4.325 13.925c-.217 0-.608-.092-1.175-.275-.55-.183-.942-.375-1.175-.575-1.133-.967-1.7-2.283-1.7-3.95 0-.317.033-.725.1-1.225.183-1.067.567-2.125 1.15-3.175.6-1.067 1.3-1.95 2.1-2.65.917-.817 1.817-1.333 2.7-1.55.233-.067.725-.1 1.475-.1.317 0 .683.075 1.1.225.417.133.775.3 1.075.5.3.183.45.358.45.525 0 .167-.017.292-.05.375-.017.083-.083.1-.2.05h-.25l.25.75c.067.15.125.333.175.55.05.217.075.417.075.6 0 .333-.083.925-.25 1.775-.167.85-.308 1.425-.425 1.725-.067.133-.1.308-.1.525-.067.117-.2.408-.4.875L9 9.425a.496.496 0 00-.15.175c-.033.067-.025.125.025.175 0 .083-.083.283-.25.6-.167.3-.283.45-.35.45a.191.191 0 00-.075.025c-.033 0-.05.025-.05.075 0 .067-.117.25-.35.55-.233.283-.492.567-.775.85-.267.283-.725.625-1.375 1.025-.633.383-1.075.575-1.325.575zm-.05-2.4c.4 0 .717-.117.95-.35.667-.45 1.183-1.1 1.55-1.95.167-.233.3-.475.4-.725.117-.25.3-.742.55-1.475.117-.167.2-.375.25-.625a3 3 0 00.1-.725c0-.733.042-1.25.125-1.55 0-.433-.008-.683-.025-.75-.017-.067-.083-.175-.2-.325a.928.928 0 00-.6-.225c-.133 0-.3.033-.5.1-.183.05-.333.117-.45.2a.794.794 0 01-.225.05.734.734 0 01-.275-.05c-.067-.05-.1-.108-.1-.175 0-.2-.092-.208-.275-.025-.167.167-.483.542-.95 1.125a6.71 6.71 0 00-.75.9c-.217.317-.325.508-.325.575 0 .05-.033.142-.1.275-.05.133-.092.242-.125.325-.117.183-.275.508-.475.975-.2.45-.325.775-.375.975v1.35c0 .367.008.608.025.725.033.117.075.233.125.35.067.117.117.2.15.25.067.117.175.258.325.425.15.167.242.275.275.325.133.133.242.2.325.2.05 0 .125-.017.225-.05.1-.05.225-.092.375-.125zm8.03 2.275c-.1-.033-.292-.2-.575-.5-.284-.317-.459-.558-.525-.725-.017-.017-.025-.067-.025-.15 0-.117.025-.25.075-.4.05-.15.1-.225.15-.225.05.05.15-.075.3-.375.166-.3.258-.5.275-.6.016-.067.066-.125.15-.175.1-.067.166-.108.2-.125.083-.133.2-.275.35-.425.167-.167.275-.283.325-.35.066-.083.191-.217.375-.4.183-.2.35-.375.5-.525.4-.367.691-.65.875-.85.866-.933 1.316-1.475 1.35-1.625l.1-.1c.05-.05.117-.1.2-.15.25-.167.483-.358.7-.575.05-.25.275-.575.675-.975.133-.183.25-.383.35-.6.117-.233.2-.433.25-.6.05-.167.042-.275-.025-.325-.067-.05-.3-.133-.7-.25a2.59 2.59 0 00-.7-.125c-.25 0-.517.067-.8.2-.267.117-.609.317-1.025.6-.234.05-.417.108-.55.175-.3.1-.492.142-.575.125-.05-.017-.125-.092-.225-.225a3.071 3.071 0 00-.275-.325l-.25-1.075.775-.425C15.263.917 16.272.525 17.055.525c.2 0 .392.025.575.075.15 0 .3.017.45.05a1.6 1.6 0 01.275.075c.217-.017.55.142 1 .475.45.333.75.667.9 1a2.1 2.1 0 01.325 1.125c0 .65-.25 1.35-.75 2.1A67.37 67.37 0 0118.155 7.3c-.75.817-1.209 1.292-1.375 1.425-.2.1-.683.558-1.45 1.375-.767.8-1.117 1.2-1.05 1.2-.017.067.083.058.3-.025.233-.083.392-.142.475-.175.383-.133.883-.25 1.5-.35.617-.117 1.1-.175 1.45-.175.167 0 .283.017.35.05.033.067.058.1.075.1.033-.017.05-.033.05-.05.017-.067.133-.1.35-.1.383 0 .833.075 1.35.225.167.05.308.117.425.2.117.083.175.158.175.225a.575.575 0 01.075.15c.05.067.117.15.2.25.133.1.2.225.2.375s-.092.283-.275.4c-.183.117-.433.175-.75.175-.233 0-.417-.017-.55-.05-.433 0-.792.025-1.075.075-.05.033-.209.058-.475.075h-.575a1.884 1.884 0 00-.35-.025c-.383 0-.925.117-1.625.35-.367.15-.967.333-1.8.55-.833.217-1.325.3-1.475.25z" fill="#1B1C1B"/></svg>