<svg width="22" height="14" fill="none" xmlns="http://www.w3.org/2000/svg"><path d="M4.325 13.925c-.217 0-.608-.092-1.175-.275-.55-.183-.942-.375-1.175-.575-1.133-.967-1.7-2.283-1.7-3.95 0-.317.033-.725.1-1.225.183-1.067.567-2.125 1.15-3.175.6-1.067 1.3-1.95 2.1-2.65.917-.817 1.817-1.333 2.7-1.55.233-.067.725-.1 1.475-.1.317 0 .683.075 1.1.225.417.133.775.3 1.075.5.3.183.45.358.45.525 0 .167-.017.292-.05.375-.017.083-.083.1-.2.05h-.25l.25.75c.067.15.125.333.175.55.05.217.075.417.075.6 0 .333-.083.925-.25 1.775-.167.85-.308 1.425-.425 1.725-.067.133-.1.308-.1.525-.067.117-.2.408-.4.875L9 9.425a.496.496 0 00-.15.175c-.033.067-.025.125.025.175 0 .083-.083.283-.25.6-.167.3-.283.45-.35.45a.191.191 0 00-.075.025c-.033 0-.05.025-.05.075 0 .067-.117.25-.35.55-.233.283-.492.567-.775.85-.267.283-.725.625-1.375 1.025-.633.383-1.075.575-1.325.575zm-.05-2.4c.4 0 .717-.117.95-.35.667-.45 1.183-1.1 1.55-1.95.167-.233.3-.475.4-.725.117-.25.3-.742.55-1.475.117-.167.2-.375.25-.625a3 3 0 00.1-.725c0-.733.042-1.25.125-1.55 0-.433-.008-.683-.025-.75-.017-.067-.083-.175-.2-.325a.928.928 0 00-.6-.225c-.133 0-.3.033-.5.1-.183.05-.333.117-.45.2a.794.794 0 01-.225.05.734.734 0 01-.275-.05c-.067-.05-.1-.108-.1-.175 0-.2-.092-.208-.275-.025-.167.167-.483.542-.95 1.125a6.71 6.71 0 00-.75.9c-.217.317-.325.508-.325.575 0 .05-.033.142-.1.275-.05.133-.092.242-.125.325-.117.183-.275.508-.475.975-.2.45-.325.775-.375.975v1.35c0 .367.008.608.025.725.033.117.075.233.125.35.067.117.117.2.15.25.067.117.175.258.325.425.15.167.242.275.275.325.133.133.242.2.325.2.05 0 .125-.017.225-.05.1-.05.225-.092.375-.125zm10.08 2.45c-.4 0-.8-.075-1.2-.225-.4-.15-.717-.333-.95-.55-.233-.233-.342-.45-.325-.65.033-.533.316-.8.85-.8l.225.025c.466.083.892.125 1.275.125.683 0 1.316-.092 1.9-.275.6-.2 1.075-.475 1.425-.825.466-.467.7-.842.7-1.125 0-.317-.233-.625-.7-.925-.333-.233-.758-.433-1.275-.6-.517-.167-.942-.242-1.275-.225-.25.033-.65-.092-1.2-.375-.1-.1-.192-.283-.275-.55a4.431 4.431 0 00-.175-.525c-.034-.117.133-.3.5-.55.367-.25 1.108-.675 2.225-1.275l1.1-.6c.5-.267.9-.492 1.2-.675.317-.183.558-.35.725-.5.183-.217.275-.367.275-.45 0-.083-.05-.15-.15-.2-.1-.067-.275-.125-.525-.175a6.004 6.004 0 00-.625-.025c-.5 0-.75.05-.75.15h-.1c-.117-.05-.442-.017-.975.1-.517.117-.783.208-.8.275-.017.05-.225.133-.625.25-.4.117-.642.175-.725.175-.117-.033-.258-.25-.425-.65-.167-.4-.225-.667-.175-.8.033-.1.25-.275.65-.525s.767-.45 1.1-.6c.35-.083.925-.167 1.725-.25.817-.1 1.375-.142 1.675-.125.8.083 1.425.292 1.875.625.45.317.741.792.875 1.425.033.167.05.292.05.375 0 .6-.375 1.242-1.125 1.925l-.75.5c-.467.333-.842.567-1.125.7-.15.117-.483.267-1 .45-.383.15-.575.242-.575.275l.575.1c.283.05.483.125.6.225.417.15.825.408 1.225.775.4.367.725.717.975 1.05.133.3.2.6.2.9 0 .7-.25 1.417-.75 2.15a5.714 5.714 0 01-1.825 1.7c-.717.4-1.892.658-3.525.775z" fill="#1B1C1B"/></svg>