<svg width="15" height="18" fill="none" xmlns="http://www.w3.org/2000/svg"><path d="M1.27 4.554h1.836c-.212 1-.294 2.037-.294 3.038a.54.54 0 001.079 0c0-.998.084-2.045.316-3.038h6.277c.233.993.317 2.04.317 3.038a.54.54 0 001.078 0 14.75 14.75 0 00-.293-3.038h1.916a.27.27 0 01.27.258l.996 12.147a.27.27 0 01-.268.291H.27a.27.27 0 01-.268-.303L1 4.802l.268.021-.269-.022a.27.27 0 01.271-.247z" fill="#fff"/><path d="M3.081 7.592a.27.27 0 00.54 0c0-3.42.986-5.594 2.25-6.533.467-.346.972-.52 1.474-.52s1.006.174 1.473.52c1.264.939 2.251 3.113 2.251 6.533a.27.27 0 00.54 0c0-3.61-1.084-5.935-2.47-6.964C8.575.209 7.96 0 7.345 0c-.616 0-1.23.21-1.794.628-1.387 1.03-2.47 3.354-2.47 6.964z" fill="#fff"/></svg>