<svg width="16" height="16" fill="none" xmlns="http://www.w3.org/2000/svg"><path d="M15.689 12.723l-1.774-1.183-1.577-1.051a.698.698 0 00-.938.152l-.975 1.255a.695.695 0 01-.888.183c-.662-.368-1.444-.715-3.172-2.444-1.727-1.73-2.076-2.51-2.445-3.172a.695.695 0 01.184-.888L5.36 4.6a.699.699 0 00.152-.938l-1.02-1.529L3.277.311A.698.698 0 002.337.1L.936.94a1.712 1.712 0 00-.777 1.006c-.384 1.397-.46 4.479 4.478 9.417 4.939 4.94 8.02 4.862 9.417 4.478a1.71 1.71 0 001.006-.777l.84-1.401a.698.698 0 00-.211-.94z" fill="#212121"/></svg>