<svg width="18" height="18" fill="none" xmlns="http://www.w3.org/2000/svg"><g clip-path="url(#clip0)"><path d="M17.65 14.313l-1.995-1.33L13.88 11.8a.786.786 0 00-1.056.171l-1.097 1.412a.782.782 0 01-.998.207c-.745-.415-1.626-.805-3.57-2.75-1.943-1.947-2.335-2.825-2.75-3.57a.782.782 0 01.207-.998L6.03 5.175a.786.786 0 00.17-1.056L5.055 2.4 3.687.35A.786.786 0 002.63.112l-1.576.946c-.426.25-.74.656-.875 1.131-.43 1.572-.518 5.039 5.038 10.595 5.557 5.556 9.023 5.469 10.595 5.038.475-.136.88-.449 1.131-.875l.946-1.576a.786.786 0 00-.238-1.058z" fill="#CEA469"/></g><defs><clipPath id="clip0"><path fill="#fff" d="M0 0h18v18H0z"/></clipPath></defs></svg>