<svg width="16" height="16" fill="none" xmlns="http://www.w3.org/2000/svg"><g clip-path="url(#clip0)"><path d="M15.69 12.723l-1.774-1.183-1.577-1.051a.699.699 0 00-.938.152l-.976 1.255a.695.695 0 01-.887.183c-.662-.368-1.445-.715-3.172-2.444-1.728-1.73-2.077-2.51-2.445-3.172a.695.695 0 01.184-.888L5.359 4.6a.699.699 0 00.153-.938l-1.02-1.529L3.279.311A.698.698 0 002.338.1L.936.94A1.712 1.712 0 00.16 1.946c-.383 1.397-.46 4.479 4.478 9.417 4.939 4.94 8.02 4.862 9.417 4.478.423-.12.783-.398 1.006-.777l.84-1.401a.698.698 0 00-.21-.94z" fill="#fff"/></g><defs><clipPath id="clip0"><path fill="#fff" d="M0 0h16v16H0z"/></clipPath></defs></svg>