<svg width="48" height="48" fill="none" xmlns="http://www.w3.org/2000/svg"><g clip-path="url(#clip0)" fill="#000"><path d="M41.489 2.167a2 2 0 00-2 2v1.667C35.193 2.088 29.714 0 23.875 0 10.71 0 0 10.749 0 23.96a2 2 0 004 0C4 12.954 12.916 4 23.875 4c4.807 0 9.323 1.702 12.883 4.759h-1.833a2 2 0 000 4h6.564a2 2 0 002-2V4.167a2 2 0 00-2-2zM46 22.04a2 2 0 00-2 2C44 35.046 35.084 44 24.125 44c-4.751 0-9.22-1.66-12.76-4.65h1.922a2 2 0 000-4H6.722c-.018 0-.034.005-.051.005a1.94 1.94 0 00-.227.023c-.056.008-.112.013-.167.026-.066.015-.131.04-.196.061-.06.021-.121.04-.18.065-.054.025-.106.057-.16.087-.062.036-.124.071-.183.113-.015.011-.032.017-.047.03-.034.025-.06.057-.092.085a1.902 1.902 0 00-.154.144 2.46 2.46 0 00-.235.305 2.059 2.059 0 00-.094.172 1.835 1.835 0 00-.08.175 2.042 2.042 0 00-.057.188c-.016.061-.033.122-.043.185a2.185 2.185 0 00-.022.214c-.003.041-.012.081-.012.123v6.592a2 2 0 004 0v-1.59C12.985 45.983 18.382 48 24.125 48 37.29 48 48 37.251 48 24.04a2 2 0 00-2-2z"/></g><defs><clipPath id="clip0"><path fill="#fff" d="M0 0h48v48H0z"/></clipPath></defs></svg>