<svg width="50" height="40" viewBox="0 0 50 40" fill="none" xmlns="http://www.w3.org/2000/svg">
<path d="M43.178 10.6335C39.8992 10.6335 37.2314 13.3485 37.2314 16.6856V24.6864C37.2314 24.902 37.4034 25.0769 37.6152 25.0769C37.8271 25.0769 37.999 24.902 37.999 24.6864V16.6856C37.999 13.7793 40.3222 11.4146 43.178 11.4146C46.0407 11.4146 48.37 13.7793 48.37 16.6856C48.37 18.7718 47.3011 20.5339 45.5103 21.3989C45.3764 21.4633 45.2912 21.6008 45.2912 21.7516V30.5443C45.2912 30.7599 45.4631 30.9349 45.675 30.9349C45.8868 30.9349 46.0588 30.7599 46.0588 30.5443V21.9925C47.9639 20.9701 49.1376 18.9593 49.1376 16.6856C49.1376 13.3485 46.4641 10.6335 43.178 10.6335Z" fill="black"/>
<path d="M33.7776 35.2307H8.4374C5.90318 35.2307 3.84143 33.1593 3.84143 30.6135V21.7516C3.84143 21.6008 3.75622 21.4633 3.62228 21.3989C1.83493 20.5354 0.767594 18.7734 0.767594 16.6856C0.767594 13.7793 3.09264 11.4146 5.95039 11.4146C8.80853 11.4146 11.1336 13.7793 11.1336 16.6856V24.6864C11.1336 24.902 11.3055 25.0769 11.5174 25.0769C11.7292 25.0769 11.9012 24.902 11.9012 24.6864V16.6856C11.9012 13.3485 9.23147 10.6335 5.95039 10.6335C2.66931 10.6335 0 13.3485 0 16.6856C0 18.9964 1.1441 20.9619 3.07383 21.9929V30.6135C3.07383 33.5901 5.47986 36.0118 8.4374 36.0118H33.7776C33.9895 36.0118 34.1614 35.8368 34.1614 35.6212C34.1614 35.4057 33.9895 35.2307 33.7776 35.2307Z" fill="black"/>
<path d="M45.6512 30.1982C45.4393 30.1982 45.2674 30.3732 45.2674 30.5888C45.2674 33.1483 43.2206 35.2306 40.7044 35.2306H37.6152C37.4034 35.2306 37.2314 35.4056 37.2314 35.6212C37.2314 35.8367 37.4034 36.0117 37.6152 36.0117H40.7044C43.6435 36.0117 46.035 33.5791 46.035 30.5888C46.035 30.3732 45.863 30.1982 45.6512 30.1982Z" fill="black"/>
<path d="M36.3796 22.7339H12.7542C11.8607 22.7339 11.1338 23.4736 11.1338 24.3823V28.1146C11.1338 29.0238 11.8607 29.7634 12.7542 29.7634H36.3792C37.2727 29.7634 37.9996 29.0238 37.9996 28.115V24.3827C37.9996 23.4736 37.2727 22.7339 36.3796 22.7339ZM37.232 28.1146C37.232 28.593 36.8493 28.9824 36.3796 28.9824H12.7542C12.284 28.9824 11.9014 28.593 11.9014 28.115V24.3827C11.9014 23.9043 12.284 23.5149 12.7542 23.5149H36.3792C36.8493 23.5149 37.232 23.9043 37.232 24.3823V28.1146Z" fill="black"/>
<path d="M42.6053 34.8401C42.3934 34.8401 42.2215 35.015 42.2215 35.2306V37.8917C42.2215 38.3705 41.8488 38.7454 41.3729 38.7454H7.7703C7.29707 38.7454 6.91213 38.3627 6.91213 37.8917V35.2306C6.91213 35.015 6.74018 34.8401 6.52833 34.8401C6.31647 34.8401 6.14453 35.015 6.14453 35.2306V37.8917C6.14453 38.793 6.87375 39.5265 7.7703 39.5265H41.3729C42.2641 39.5265 42.9891 38.793 42.9891 37.8917V35.2306C42.9891 35.015 42.8171 34.8401 42.6053 34.8401Z" fill="black"/>
<path d="M35.3619 0.473633H13.8285C9.37995 0.473633 5.76074 4.15243 5.76074 8.67477V11.018C5.76074 11.2335 5.93268 11.4085 6.14454 11.4085C6.3564 11.4085 6.52834 11.2335 6.52834 11.018V8.67477C6.52834 4.58318 9.80328 1.25469 13.8285 1.25469H35.3619C39.356 1.25469 42.6053 4.58318 42.6053 8.67477V11.018C42.6053 11.2335 42.7772 11.4085 42.9891 11.4085C43.2009 11.4085 43.3729 11.2335 43.3729 11.018V8.67477C43.3729 4.15243 39.779 0.473633 35.3619 0.473633Z" fill="black"/>
<path d="M31.0909 2.42627H29.1719C28.96 2.42627 28.7881 2.60123 28.7881 2.8168C28.7881 3.03237 28.96 3.20733 29.1719 3.20733H31.0909C31.3027 3.20733 31.4747 3.03237 31.4747 2.8168C31.4747 2.60123 31.3027 2.42627 31.0909 2.42627Z" fill="black"/>
<path d="M39.3996 3.97043C38.2801 2.97457 36.8462 2.42627 35.3617 2.42627C35.3532 2.42627 35.3452 2.42627 35.3371 2.42705C35.3291 2.42627 35.3206 2.42627 35.3126 2.42627H32.626C32.4141 2.42627 32.2422 2.60123 32.2422 2.8168C32.2422 3.03237 32.4141 3.20733 32.626 3.20733H35.3126C35.3206 3.20733 35.3291 3.20733 35.3371 3.20655C35.3452 3.20733 35.3536 3.20733 35.3617 3.20733C36.6601 3.20733 37.9147 3.68729 38.8942 4.55857C38.9671 4.623 39.0573 4.65503 39.1467 4.65503C39.2538 4.65503 39.3597 4.60973 39.4361 4.52147C39.5754 4.35901 39.5593 4.11258 39.3996 3.97043Z" fill="black"/>
<path d="M4.03645 13.0867C2.74037 13.808 1.93555 15.187 1.93555 16.6854C1.93555 16.901 2.10749 17.076 2.31934 17.076C2.5312 17.076 2.70314 16.901 2.70314 16.6851C2.70314 15.4725 3.35521 14.3559 4.4049 13.7717C4.59065 13.6682 4.65897 13.4308 4.55726 13.2418C4.45556 13.0531 4.22259 12.9832 4.03645 13.0867Z" fill="black"/>
<path d="M7.85523 13.066C7.27608 12.7517 6.62209 12.5857 5.96388 12.5857C5.75202 12.5857 5.58008 12.7607 5.58008 12.9762C5.58008 13.1918 5.75202 13.3668 5.96388 13.3668C6.49659 13.3668 7.02546 13.5011 7.49369 13.7553C7.55126 13.7866 7.61305 13.8014 7.67408 13.8014C7.81148 13.8014 7.94389 13.7268 8.01335 13.5944C8.11276 13.4042 8.04214 13.1676 7.85523 13.066Z" fill="black"/>
</svg>
