<svg width="50" height="34" viewBox="0 0 50 34" fill="none" xmlns="http://www.w3.org/2000/svg">
<path d="M48.0466 17.9766H1.95311C0.876167 17.9766 0 18.8527 0 19.9297V22.2734C0 22.489 0.174608 22.664 0.390623 22.664C0.606637 22.664 0.781245 22.489 0.781245 22.2734V19.9297C0.781245 19.2836 1.30702 18.7578 1.95311 18.7578H48.0466C48.6927 18.7578 49.2185 19.2836 49.2185 19.9297V22.2734C49.2185 22.489 49.3931 22.664 49.6091 22.664C49.8251 22.664 49.9997 22.489 49.9997 22.2734V19.9297C49.9997 18.8527 49.1235 17.9766 48.0466 17.9766Z" fill="black"/>
<path d="M47.2654 28.1328H2.73437C2.51836 28.1328 2.34375 28.3078 2.34375 28.5234C2.34375 28.7391 2.51836 28.9141 2.73437 28.9141H47.2654C47.4814 28.9141 47.656 28.7391 47.656 28.5234C47.656 28.3078 47.4814 28.1328 47.2654 28.1328Z" fill="black"/>
<path d="M49.6093 21.8828H44.9219C44.7059 21.8828 44.5312 22.0578 44.5312 22.2734C44.5312 22.4891 44.7059 22.6641 44.9219 22.6641H49.2187V28.5234C49.2187 28.739 49.3933 28.914 49.6093 28.914C49.8254 28.914 50 28.739 50 28.5234V22.2734C50 22.0578 49.8254 21.8828 49.6093 21.8828Z" fill="black"/>
<path d="M41.7966 21.8828H0.390623C0.174608 21.8828 0 22.0578 0 22.2734V28.5234C0 28.739 0.174608 28.914 0.390623 28.914C0.606637 28.914 0.781245 28.739 0.781245 28.5234V22.6641H41.7966C42.0126 22.6641 42.1873 22.4891 42.1873 22.2734C42.1873 22.0578 42.0126 21.8828 41.7966 21.8828Z" fill="black"/>
<path d="M2.73436 28.1328C2.51834 28.1328 2.34374 28.3078 2.34374 28.5234V32.4297H0.781245V28.5234C0.781245 28.3078 0.606637 28.1328 0.390623 28.1328C0.174608 28.1328 0 28.3078 0 28.5234V32.8203C0 33.0359 0.174608 33.2109 0.390623 33.2109H2.73436C2.95037 33.2109 3.12498 33.0359 3.12498 32.8203V28.5234C3.12498 28.3078 2.95037 28.1328 2.73436 28.1328Z" fill="black"/>
<path d="M49.6094 28.1328C49.3933 28.1328 49.2187 28.3078 49.2187 28.5234V32.4297H47.6562V28.5234C47.6562 28.3078 47.4816 28.1328 47.2656 28.1328C47.0496 28.1328 46.875 28.3078 46.875 28.5234V32.8203C46.875 33.0359 47.0496 33.2109 47.2656 33.2109H49.6094C49.8254 33.2109 50 33.0359 50 32.8203V28.5234C50 28.3078 49.8254 28.1328 49.6094 28.1328Z" fill="black"/>
<path d="M45.7029 0.789062H4.29686C3.21992 0.789062 2.34375 1.66523 2.34375 2.74218V12.5077C2.34375 12.7234 2.51836 12.8984 2.73437 12.8984C2.95039 12.8984 3.125 12.7234 3.125 12.5077V2.74218C3.125 2.09609 3.65077 1.57031 4.29686 1.57031H45.7029C46.349 1.57031 46.8747 2.09609 46.8747 2.74218V12.5077C46.8747 12.7234 47.0494 12.8984 47.2654 12.8984C47.4814 12.8984 47.656 12.7234 47.656 12.5077V2.74218C47.656 1.66523 46.7798 0.789062 45.7029 0.789062Z" fill="black"/>
<path d="M2.85806 12.1372C2.65181 12.068 2.43189 12.1798 2.36392 12.3841L0.0201874 19.4153C-0.0481716 19.62 0.0627653 19.841 0.267061 19.9094C0.308076 19.9231 0.349873 19.9297 0.390498 19.9297C0.554169 19.9297 0.706512 19.8262 0.761199 19.6625L3.10494 12.6313C3.17329 12.4266 3.06236 12.2055 2.85806 12.1372Z" fill="black"/>
<path d="M49.98 19.4151L47.6362 12.3839C47.5683 12.1796 47.348 12.0683 47.1421 12.137C46.9374 12.2054 46.8269 12.4265 46.8952 12.6312L49.239 19.6624C49.2933 19.8261 49.4456 19.9296 49.6093 19.9296C49.6499 19.9296 49.6917 19.9233 49.7331 19.9093C49.9378 19.8409 50.0483 19.6198 49.98 19.4151Z" fill="black"/>
<path d="M47.2656 12.1172H43.75C43.534 12.1172 43.3594 12.2922 43.3594 12.5078C43.3594 12.7234 43.534 12.8984 43.75 12.8984H47.2656C47.4816 12.8984 47.6562 12.7234 47.6562 12.5078C47.6562 12.2922 47.4816 12.1172 47.2656 12.1172Z" fill="black"/>
<path d="M6.24998 12.1172H2.73437C2.51836 12.1172 2.34375 12.2922 2.34375 12.5078C2.34375 12.7234 2.51836 12.8984 2.73437 12.8984H6.24998C6.46599 12.8984 6.6406 12.7234 6.6406 12.5078C6.6406 12.2922 6.46599 12.1172 6.24998 12.1172Z" fill="black"/>
<path d="M24.9999 7.03905C25.2159 7.03905 25.3905 6.86405 25.3905 6.64842V6.2578C25.3905 5.18085 24.5143 4.30469 23.4374 4.30469H7.81249C6.73554 4.30469 5.85938 5.18085 5.85938 6.2578V12.5078C5.85938 13.5847 6.73554 14.4609 7.81249 14.4609H23.4374C24.5143 14.4609 25.3905 13.5847 25.3905 12.5078V9.38278C25.3905 9.16716 25.2159 8.99216 24.9999 8.99216C24.7839 8.99216 24.6093 9.16716 24.6093 9.38278V12.5078C24.6093 13.1539 24.0835 13.6796 23.4374 13.6796H7.81249C7.1664 13.6796 6.64062 13.1539 6.64062 12.5078V6.2578C6.64062 5.61171 7.1664 5.08593 7.81249 5.08593H23.4374C24.0835 5.08593 24.6093 5.61171 24.6093 6.2578V6.64842C24.6093 6.86405 24.7839 7.03905 24.9999 7.03905Z" fill="black"/>
<path d="M42.1874 4.30469H26.5625C25.4855 4.30469 24.6094 5.18085 24.6094 6.2578C24.6094 6.47343 24.784 6.64842 25 6.64842C25.216 6.64842 25.3906 6.47343 25.3906 6.2578C25.3906 5.61171 25.9164 5.08593 26.5625 5.08593H42.1874C42.8335 5.08593 43.3593 5.61171 43.3593 6.2578V12.5078C43.3593 13.1539 42.8335 13.6796 42.1874 13.6796H26.5625C25.9164 13.6796 25.3906 13.1539 25.3906 12.5078C25.3906 12.2921 25.216 12.1171 25 12.1171C24.784 12.1171 24.6094 12.2921 24.6094 12.5078C24.6094 13.5847 25.4855 14.4609 26.5625 14.4609H42.1874C43.2643 14.4609 44.1405 13.5847 44.1405 12.5078V6.2578C44.1405 5.18085 43.2643 4.30469 42.1874 4.30469Z" fill="black"/>
</svg>
