<svg width="31" height="50" viewBox="0 0 31 50" fill="none" xmlns="http://www.w3.org/2000/svg">
<path d="M4.41406 28.5156C4.19265 28.5156 4.01367 28.6906 4.01367 28.9062V49.2188H2.41211V28.9062C2.41211 28.6906 2.23314 28.5156 2.01172 28.5156C1.7903 28.5156 1.61133 28.6906 1.61133 28.9062V49.6094C1.61133 49.825 1.7903 50 2.01172 50H4.41406C4.63548 50 4.81446 49.825 4.81446 49.6094V28.9062C4.81446 28.6906 4.63548 28.5156 4.41406 28.5156Z" fill="black"/>
<path d="M29.2383 28.9062C29.0169 28.9062 28.8379 29.0813 28.8379 29.2969V49.2188H27.2363V29.2969C27.2363 29.0813 27.0574 28.9062 26.8359 28.9062C26.6145 28.9062 26.4355 29.0813 26.4355 29.2969V49.6094C26.4355 49.825 26.6145 50 26.8359 50H29.2383C29.4597 50 29.6387 49.825 29.6387 49.6094V29.2969C29.6387 29.0813 29.4597 28.9062 29.2383 28.9062Z" fill="black"/>
<path d="M5.21484 11.7188C4.99343 11.7188 4.81445 11.8938 4.81445 12.1094V25C4.81445 25.2156 4.99343 25.3906 5.21484 25.3906C5.43626 25.3906 5.61523 25.2156 5.61523 25V12.1094C5.61523 11.8938 5.43626 11.7188 5.21484 11.7188Z" fill="black"/>
<path d="M26.0352 11.7188C25.8137 11.7188 25.6348 11.8938 25.6348 12.1094V25C25.6348 25.2156 25.8137 25.3906 26.0352 25.3906C26.2566 25.3906 26.4355 25.2156 26.4355 25V12.1094C26.4355 11.8938 26.2566 11.7188 26.0352 11.7188Z" fill="black"/>
<path d="M29.6387 24.6094H1.61133C0.949082 24.6094 0.410156 25.1352 0.410156 25.7812V28.125C0.410156 28.7711 0.949082 29.2969 1.61133 29.2969H29.6387C30.3009 29.2969 30.8398 28.7711 30.8398 28.125V25.7812C30.8398 25.1352 30.3009 24.6094 29.6387 24.6094ZM30.0391 28.125C30.0391 28.3402 29.8597 28.5156 29.6387 28.5156H1.61133C1.39031 28.5156 1.21094 28.3402 1.21094 28.125V25.7812C1.21094 25.566 1.39031 25.3906 1.61133 25.3906H29.6387C29.8597 25.3906 30.0391 25.566 30.0391 25.7812V28.125Z" fill="black"/>
<path d="M25.2344 0H6.01562C4.02849 0 2.41211 1.57734 2.41211 3.51562V8.98438C2.41211 10.9227 4.02849 12.5 6.01562 12.5H25.2344C27.2215 12.5 28.8379 10.9227 28.8379 8.98438V3.51562C28.8379 1.57734 27.2215 0 25.2344 0ZM28.0371 8.98438C28.0371 10.4922 26.7795 11.7188 25.2344 11.7188H6.01562C4.47052 11.7188 3.21289 10.4922 3.21289 8.98438V3.51562C3.21289 2.00781 4.47052 0.78125 6.01562 0.78125H25.2344C26.7795 0.78125 28.0371 2.00781 28.0371 3.51562V8.98438Z" fill="black"/>
<path d="M6.81641 11.7188C6.59499 11.7188 6.41602 11.8938 6.41602 12.1094V25C6.41602 25.2156 6.59499 25.3906 6.81641 25.3906C7.03782 25.3906 7.2168 25.2156 7.2168 25V12.1094C7.2168 11.8938 7.03782 11.7188 6.81641 11.7188Z" fill="black"/>
<path d="M24.4336 11.7188C24.2122 11.7188 24.0332 11.8938 24.0332 12.1094V25C24.0332 25.2156 24.2122 25.3906 24.4336 25.3906C24.655 25.3906 24.834 25.2156 24.834 25V12.1094C24.834 11.8938 24.655 11.7188 24.4336 11.7188Z" fill="black"/>
<path d="M26.8359 33.2031H4.41406C4.19265 33.2031 4.01367 33.3781 4.01367 33.5938C4.01367 33.8094 4.19265 33.9844 4.41406 33.9844H26.8359C27.0574 33.9844 27.2363 33.8094 27.2363 33.5938C27.2363 33.3781 27.0574 33.2031 26.8359 33.2031Z" fill="black"/>
<path d="M26.8359 34.7656H4.41406C4.19265 34.7656 4.01367 34.9406 4.01367 35.1562C4.01367 35.3719 4.19265 35.5469 4.41406 35.5469H26.8359C27.0574 35.5469 27.2363 35.3719 27.2363 35.1562C27.2363 34.9406 27.0574 34.7656 26.8359 34.7656Z" fill="black"/>
<path d="M4.94578 2.36128C4.60785 2.66089 4.41406 3.0812 4.41406 3.51558V5.85933C4.41406 6.07496 4.59304 6.24996 4.81445 6.24996C5.03587 6.24996 5.21484 6.07496 5.21484 5.85933V3.51558C5.21484 3.30113 5.31294 3.09136 5.4839 2.9398C5.64766 2.79488 5.65967 2.54761 5.51113 2.38784C5.36259 2.22808 5.10914 2.21675 4.94578 2.36128Z" fill="black"/>
<path d="M25.2344 1.95312H24.0332C23.8118 1.95312 23.6328 2.12813 23.6328 2.34375C23.6328 2.55937 23.8118 2.73438 24.0332 2.73438H25.2344C25.6608 2.73438 26.0352 3.09961 26.0352 3.51562V4.29688C26.0352 4.5125 26.2141 4.6875 26.4355 4.6875C26.657 4.6875 26.8359 4.5125 26.8359 4.29688V3.51562C26.8359 2.66875 26.1024 1.95312 25.2344 1.95312Z" fill="black"/>
<path d="M22.4316 1.95312H21.2305C21.0091 1.95312 20.8301 2.12813 20.8301 2.34375C20.8301 2.55937 21.0091 2.73438 21.2305 2.73438H22.4316C22.6531 2.73438 22.832 2.55937 22.832 2.34375C22.832 2.12813 22.6531 1.95312 22.4316 1.95312Z" fill="black"/>
</svg>
