<svg width="51" height="38" viewBox="0 0 51 38" fill="none" xmlns="http://www.w3.org/2000/svg">
<path d="M1.98228 0.640625H0.396455C0.177612 0.640625 0 0.815234 0 1.03125V36.9688C0 37.1848 0.177612 37.3594 0.396455 37.3594H1.98228C2.20112 37.3594 2.37873 37.1848 2.37873 36.9688V1.03125C2.37873 0.815234 2.20112 0.640625 1.98228 0.640625ZM1.58582 36.5781H0.79291V1.42188H1.58582V36.5781Z" fill="black"/>
<path d="M50.3495 0.640625H48.7636C48.5448 0.640625 48.3672 0.815234 48.3672 1.03125V36.9688C48.3672 37.1848 48.5448 37.3594 48.7636 37.3594H50.3495C50.5683 37.3594 50.7459 37.1848 50.7459 36.9688V1.03125C50.7459 0.815234 50.5683 0.640625 50.3495 0.640625ZM49.953 36.5781H49.1601V1.42188H49.953V36.5781Z" fill="black"/>
<path d="M23.7874 29.9375H1.98239C1.76355 29.9375 1.58594 30.1121 1.58594 30.3281C1.58594 30.5441 1.76355 30.7188 1.98239 30.7188H23.7874C24.0063 30.7188 24.1839 30.5441 24.1839 30.3281C24.1839 30.1121 24.0063 29.9375 23.7874 29.9375Z" fill="black"/>
<path d="M48.7641 31.5H1.98239C1.76355 31.5 1.58594 31.6746 1.58594 31.8906C1.58594 32.1066 1.76355 32.2812 1.98239 32.2812H48.7641C48.983 32.2812 49.1606 32.1066 49.1606 31.8906C49.1606 31.6746 48.983 31.5 48.7641 31.5Z" fill="black"/>
<path d="M48.764 29.9375H26.959C26.7401 29.9375 26.5625 30.1121 26.5625 30.3281C26.5625 30.5441 26.7401 30.7188 26.959 30.7188H48.764C48.9828 30.7188 49.1604 30.5441 49.1604 30.3281C49.1604 30.1121 48.9828 29.9375 48.764 29.9375Z" fill="black"/>
<path d="M48.7642 9.625H43.6103C43.3915 9.625 43.2139 9.79961 43.2139 10.0156C43.2139 10.2316 43.3915 10.4062 43.6103 10.4062H48.7642C48.9831 10.4062 49.1607 10.2316 49.1607 10.0156C49.1607 9.79961 48.9831 9.625 48.7642 9.625Z" fill="black"/>
<path d="M40.835 9.625H1.98239C1.76355 9.625 1.58594 9.79961 1.58594 10.0156C1.58594 10.2316 1.76355 10.4062 1.98239 10.4062H40.835C41.0538 10.4062 41.2315 10.2316 41.2315 10.0156C41.2315 9.79961 41.0538 9.625 40.835 9.625Z" fill="black"/>
<path d="M48.7641 11.1875H1.98239C1.76355 11.1875 1.58594 11.3621 1.58594 11.5781C1.58594 11.7941 1.76355 11.9688 1.98239 11.9688H48.7641C48.983 11.9688 49.1606 11.7941 49.1606 11.5781C49.1606 11.3621 48.983 11.1875 48.7641 11.1875Z" fill="black"/>
<path d="M48.7641 6.5H1.98239C1.76355 6.5 1.58594 6.67461 1.58594 6.89062C1.58594 7.10664 1.76355 7.28125 1.98239 7.28125H48.7641C48.983 7.28125 49.1606 7.10664 49.1606 6.89062C49.1606 6.67461 48.983 6.5 48.7641 6.5Z" fill="black"/>
<path d="M48.7641 26.8125H1.98239C1.76355 26.8125 1.58594 26.9871 1.58594 27.2031C1.58594 27.4191 1.76355 27.5938 1.98239 27.5938H48.7641C48.983 27.5938 49.1606 27.4191 49.1606 27.2031C49.1606 26.9871 48.983 26.8125 48.7641 26.8125Z" fill="black"/>
<path d="M13.8763 23.6875H5.55075C5.33191 23.6875 5.1543 23.8621 5.1543 24.0781C5.1543 24.2941 5.33191 24.4688 5.55075 24.4688H13.8763C14.0952 24.4688 14.2728 24.2941 14.2728 24.0781C14.2728 23.8621 14.0952 23.6875 13.8763 23.6875Z" fill="black"/>
<path d="M13.8763 20.5625H5.55075C5.33191 20.5625 5.1543 20.7371 5.1543 20.9531C5.1543 21.1691 5.33191 21.3438 5.55075 21.3438H13.8763C14.0952 21.3438 14.2728 21.1691 14.2728 20.9531C14.2728 20.7371 14.0952 20.5625 13.8763 20.5625Z" fill="black"/>
<path d="M13.8763 17.4375H5.55075C5.33191 17.4375 5.1543 17.6121 5.1543 17.8281C5.1543 18.0441 5.33191 18.2188 5.55075 18.2188H13.8763C14.0952 18.2188 14.2728 18.0441 14.2728 17.8281C14.2728 17.6121 14.0952 17.4375 13.8763 17.4375Z" fill="black"/>
<path d="M13.8763 14.3125H5.55075C5.33191 14.3125 5.1543 14.4871 5.1543 14.7031C5.1543 14.9191 5.33191 15.0938 5.55075 15.0938H13.8763C14.0952 15.0938 14.2728 14.9191 14.2728 14.7031C14.2728 14.4871 14.0952 14.3125 13.8763 14.3125Z" fill="black"/>
<path d="M5.55075 11.5781C5.33191 11.5781 5.1543 11.7527 5.1543 11.9688V30.3281C5.1543 30.5441 5.33191 30.7188 5.55075 30.7188C5.7696 30.7188 5.94721 30.5441 5.94721 30.3281V11.9688C5.94721 11.7527 5.7696 11.5781 5.55075 11.5781Z" fill="black"/>
<path d="M13.8759 11.5781C13.6571 11.5781 13.4795 11.7527 13.4795 11.9688V30.3281C13.4795 30.5441 13.6571 30.7188 13.8759 30.7188C14.0948 30.7188 14.2724 30.5441 14.2724 30.3281V11.9688C14.2724 11.7527 14.0948 11.5781 13.8759 11.5781Z" fill="black"/>
<path d="M48.7637 2.98438C36.8217 2.98438 36.12 6.45547 36.0791 6.85117C36.0577 7.06133 36.2108 7.24492 36.4237 7.27227C36.4403 7.27422 36.4566 7.27539 36.4732 7.27539C36.6663 7.27539 36.836 7.13281 36.8669 6.94062C36.8717 6.90898 37.5072 3.76562 48.7637 3.76562C48.9826 3.76562 49.1602 3.59102 49.1602 3.375C49.1602 3.15898 48.9826 2.98438 48.7637 2.98438Z" fill="black"/>
<path d="M48.7637 23.2969C36.8217 23.2969 36.12 26.768 36.0791 27.1637C36.0577 27.3738 36.2108 27.5574 36.4237 27.5848C36.4403 27.5867 36.4566 27.5879 36.4732 27.5879C36.6663 27.5879 36.836 27.4453 36.8669 27.2531C36.8717 27.2215 37.5072 24.0781 48.7637 24.0781C48.9826 24.0781 49.1602 23.9035 49.1602 23.6875C49.1602 23.4715 48.9826 23.2969 48.7637 23.2969Z" fill="black"/>
</svg>
