<svg width="59" height="50" viewBox="0 0 59 50" fill="none" xmlns="http://www.w3.org/2000/svg">
<path d="M55.5859 0H3.41406C2.0571 0 0.953125 0.876172 0.953125 1.95312V46.4844C0.953125 47.5613 2.0571 48.4375 3.41406 48.4375H55.5859C56.9429 48.4375 58.0469 47.5613 58.0469 46.4844V1.95312C58.0469 0.876172 56.9429 0 55.5859 0ZM57.0625 46.4844C57.0625 47.1305 56.4 47.6562 55.5859 47.6562H3.41406C2.59998 47.6562 1.9375 47.1305 1.9375 46.4844V1.95312C1.9375 1.30703 2.59998 0.78125 3.41406 0.78125H55.5859C56.4 0.78125 57.0625 1.30703 57.0625 1.95312V46.4844Z" fill="black"/>
<path d="M56.5703 47.6562C56.2986 47.6562 56.0781 47.8313 56.0781 48.0469V49.2188H2.92188V48.0469C2.92188 47.8313 2.70138 47.6562 2.42969 47.6562C2.158 47.6562 1.9375 47.8313 1.9375 48.0469V49.6094C1.9375 49.825 2.158 50 2.42969 50H56.5703C56.842 50 57.0625 49.825 57.0625 49.6094V48.0469C57.0625 47.8313 56.842 47.6562 56.5703 47.6562Z" fill="black"/>
<path d="M57.5547 9.76562H31.4688C31.1971 9.76562 30.9766 9.94063 30.9766 10.1562C30.9766 10.3719 31.1971 10.5469 31.4688 10.5469H57.5547C57.8264 10.5469 58.0469 10.3719 58.0469 10.1562C58.0469 9.94063 57.8264 9.76562 57.5547 9.76562Z" fill="black"/>
<path d="M29.5 9.76562H1.44531C1.17363 9.76562 0.953125 9.94063 0.953125 10.1562C0.953125 10.3719 1.17363 10.5469 1.44531 10.5469H29.5C29.7717 10.5469 29.9922 10.3719 29.9922 10.1562C29.9922 9.94063 29.7717 9.76562 29.5 9.76562Z" fill="black"/>
<path d="M43.2812 37.8906H15.7188C15.4471 37.8906 15.2266 38.0656 15.2266 38.2812C15.2266 38.4969 15.4471 38.6719 15.7188 38.6719H43.2812C43.5529 38.6719 43.7734 38.4969 43.7734 38.2812C43.7734 38.0656 43.5529 37.8906 43.2812 37.8906Z" fill="black"/>
<path d="M41.3125 42.9688H15.7188C15.4471 42.9688 15.2266 43.1438 15.2266 43.3594C15.2266 43.575 15.4471 43.75 15.7188 43.75H41.3125C41.5842 43.75 41.8047 43.575 41.8047 43.3594C41.8047 43.1438 41.5842 42.9688 41.3125 42.9688Z" fill="black"/>
<path d="M15.7188 11.3281C15.4471 11.3281 15.2266 11.5031 15.2266 11.7188V48.0469C15.2266 48.2625 15.4471 48.4375 15.7188 48.4375C15.9904 48.4375 16.2109 48.2625 16.2109 48.0469V11.7188C16.2109 11.5031 15.9904 11.3281 15.7188 11.3281Z" fill="black"/>
<path d="M15.7188 0C15.4471 0 15.2266 0.175 15.2266 0.390625V10.1562C15.2266 10.3719 15.4471 10.5469 15.7188 10.5469C15.9904 10.5469 16.2109 10.3719 16.2109 10.1562V0.390625C16.2109 0.175 15.9904 0 15.7188 0Z" fill="black"/>
<path d="M43.2812 0C43.0096 0 42.7891 0.175 42.7891 0.390625V48.0469C42.7891 48.2625 43.0096 48.4375 43.2812 48.4375C43.5529 48.4375 43.7734 48.2625 43.7734 48.0469V0.390625C43.7734 0.175 43.5529 0 43.2812 0Z" fill="black"/>
<path d="M29.5 0C29.2283 0 29.0078 0.175 29.0078 0.390625V38.2812C29.0078 38.4969 29.2283 38.6719 29.5 38.6719C29.7717 38.6719 29.9922 38.4969 29.9922 38.2812V0.390625C29.9922 0.175 29.7717 0 29.5 0Z" fill="black"/>
<path d="M13.2578 5.85938C12.9861 5.85938 12.7656 6.03438 12.7656 6.25V8.20312C12.7656 8.41875 12.9861 8.59375 13.2578 8.59375C13.5295 8.59375 13.75 8.41875 13.75 8.20312V6.25C13.75 6.03438 13.5295 5.85938 13.2578 5.85938Z" fill="black"/>
<path d="M27.0391 5.85938C26.7674 5.85938 26.5469 6.03438 26.5469 6.25V8.20312C26.5469 8.41875 26.7674 8.59375 27.0391 8.59375C27.3108 8.59375 27.5312 8.41875 27.5312 8.20312V6.25C27.5312 6.03438 27.3108 5.85938 27.0391 5.85938Z" fill="black"/>
<path d="M31.9609 5.85938C31.6893 5.85938 31.4688 6.03438 31.4688 6.25V8.20312C31.4688 8.41875 31.6893 8.59375 31.9609 8.59375C32.2326 8.59375 32.4531 8.41875 32.4531 8.20312V6.25C32.4531 6.03438 32.2326 5.85938 31.9609 5.85938Z" fill="black"/>
<path d="M27.0391 22.2656C26.7674 22.2656 26.5469 22.4406 26.5469 22.6562V24.6094C26.5469 24.825 26.7674 25 27.0391 25C27.3108 25 27.5312 24.825 27.5312 24.6094V22.6562C27.5312 22.4406 27.3108 22.2656 27.0391 22.2656Z" fill="black"/>
<path d="M31.9609 22.2656C31.6893 22.2656 31.4688 22.4406 31.4688 22.6562V24.6094C31.4688 24.825 31.6893 25 31.9609 25C32.2326 25 32.4531 24.825 32.4531 24.6094V22.6562C32.4531 22.4406 32.2326 22.2656 31.9609 22.2656Z" fill="black"/>
<path d="M45.7422 22.2656C45.4705 22.2656 45.25 22.4406 45.25 22.6562V24.6094C45.25 24.825 45.4705 25 45.7422 25C46.0139 25 46.2344 24.825 46.2344 24.6094V22.6562C46.2344 22.4406 46.0139 22.2656 45.7422 22.2656Z" fill="black"/>
<path d="M13.2578 22.2656C12.9861 22.2656 12.7656 22.4406 12.7656 22.6562V24.6094C12.7656 24.825 12.9861 25 13.2578 25C13.5295 25 13.75 24.825 13.75 24.6094V22.6562C13.75 22.4406 13.5295 22.2656 13.2578 22.2656Z" fill="black"/>
<path d="M45.7422 5.85938C45.4705 5.85938 45.25 6.03438 45.25 6.25V8.20312C45.25 8.41875 45.4705 8.59375 45.7422 8.59375C46.0139 8.59375 46.2344 8.41875 46.2344 8.20312V6.25C46.2344 6.03438 46.0139 5.85938 45.7422 5.85938Z" fill="black"/>
<path d="M30.9766 39.8438H28.0234C27.7518 39.8438 27.5312 40.0188 27.5312 40.2344C27.5312 40.45 27.7518 40.625 28.0234 40.625H30.9766C31.2483 40.625 31.4688 40.45 31.4688 40.2344C31.4688 40.0188 31.2483 39.8438 30.9766 39.8438Z" fill="black"/>
<path d="M30.9766 44.9219H28.0234C27.7518 44.9219 27.5312 45.0969 27.5312 45.3125C27.5312 45.5281 27.7518 45.7031 28.0234 45.7031H30.9766C31.2483 45.7031 31.4688 45.5281 31.4688 45.3125C31.4688 45.0969 31.2483 44.9219 30.9766 44.9219Z" fill="black"/>
<path d="M55.0938 1.95312H53.125C52.8533 1.95312 52.6328 2.12813 52.6328 2.34375C52.6328 2.55937 52.8533 2.73438 53.125 2.73438H54.6016V7.8125C54.6016 8.02812 54.8221 8.20312 55.0938 8.20312C55.3654 8.20312 55.5859 8.02812 55.5859 7.8125V2.34375C55.5859 2.12813 55.3654 1.95312 55.0938 1.95312Z" fill="black"/>
<path d="M51.1562 1.95312H49.1875C48.9158 1.95312 48.6953 2.12813 48.6953 2.34375C48.6953 2.55937 48.9158 2.73438 49.1875 2.73438H51.1562C51.4279 2.73438 51.6484 2.55937 51.6484 2.34375C51.6484 2.12813 51.4279 1.95312 51.1562 1.95312Z" fill="black"/>
<path d="M3.90625 37.1094C3.63456 37.1094 3.41406 37.2844 3.41406 37.5V38.2812C3.41406 38.4969 3.63456 38.6719 3.90625 38.6719C4.17794 38.6719 4.39844 38.4969 4.39844 38.2812V37.5C4.39844 37.2844 4.17794 37.1094 3.90625 37.1094Z" fill="black"/>
<path d="M3.90625 39.8438C3.63456 39.8438 3.41406 40.0188 3.41406 40.2344V46.0938C3.41406 46.3094 3.63456 46.4844 3.90625 46.4844C4.17794 46.4844 4.39844 46.3094 4.39844 46.0938V40.2344C4.39844 40.0188 4.17794 39.8438 3.90625 39.8438Z" fill="black"/>
</svg>
