<svg width="64" height="50" viewBox="0 0 64 50" fill="none" xmlns="http://www.w3.org/2000/svg">
<path d="M63 27.3438C62.724 27.3438 62.5 27.5184 62.5 27.7344V49.2188H1.5V27.7344C1.5 27.5184 1.276 27.3438 1 27.3438C0.724 27.3438 0.5 27.5184 0.5 27.7344V49.6094C0.5 49.8254 0.724 50 1 50H63C63.276 50 63.5 49.8254 63.5 49.6094V27.7344C63.5 27.5184 63.276 27.3438 63 27.3438Z" fill="black"/>
<path d="M63 0H39C38.724 0 38.5 0.175 38.5 0.390625C38.5 0.60625 38.724 0.78125 39 0.78125H62.5V14.8438C62.5 15.0594 62.724 15.2344 63 15.2344C63.276 15.2344 63.5 15.0594 63.5 14.8438V0.390625C63.5 0.175 63.276 0 63 0Z" fill="black"/>
<path d="M15 0H1C0.724 0 0.5 0.175 0.5 0.390625V14.8438C0.5 15.0594 0.724 15.2344 1 15.2344C1.276 15.2344 1.5 15.0594 1.5 14.8438V0.78125H15C15.276 0.78125 15.5 0.60625 15.5 0.390625C15.5 0.175 15.276 0 15 0Z" fill="black"/>
<path d="M63.5 25.7812H0.5C0.224 25.7812 0 25.9559 0 26.1719V27.7344C0 27.9504 0.224 28.125 0.5 28.125H63.5C63.776 28.125 64 27.9504 64 27.7344V26.1719C64 25.9559 63.776 25.7812 63.5 25.7812ZM63 27.3438H1V26.5625H63V27.3438Z" fill="black"/>
<path d="M15 27.3438C14.724 27.3438 14.5 27.5184 14.5 27.7344V49.2188C14.5 49.4348 14.724 49.6094 15 49.6094C15.276 49.6094 15.5 49.4348 15.5 49.2188V27.7344C15.5 27.5184 15.276 27.3438 15 27.3438Z" fill="black"/>
<path d="M15 0C14.724 0 14.5 0.175 14.5 0.390625V14.8438C14.5 15.0594 14.724 15.2344 15 15.2344C15.276 15.2344 15.5 15.0594 15.5 14.8438V0.390625C15.5 0.175 15.276 0 15 0Z" fill="black"/>
<path d="M39 27.3438C38.724 27.3438 38.5 27.5184 38.5 27.7344V49.6094C38.5 49.8254 38.724 50 39 50C39.276 50 39.5 49.8254 39.5 49.6094V27.7344C39.5 27.5184 39.276 27.3438 39 27.3438Z" fill="black"/>
<path d="M51 27.3438C50.724 27.3438 50.5 27.5184 50.5 27.7344V48.0469C50.5 48.2629 50.724 48.4375 51 48.4375C51.276 48.4375 51.5 48.2629 51.5 48.0469V27.7344C51.5 27.5184 51.276 27.3438 51 27.3438Z" fill="black"/>
<path d="M39 0C38.724 0 38.5 0.175 38.5 0.390625V14.8438C38.5 15.0594 38.724 15.2344 39 15.2344C39.276 15.2344 39.5 15.0594 39.5 14.8438V0.390625C39.5 0.175 39.276 0 39 0Z" fill="black"/>
<path d="M51 0C50.724 0 50.5 0.175 50.5 0.390625V13.2812C50.5 13.4969 50.724 13.6719 51 13.6719C51.276 13.6719 51.5 13.4969 51.5 13.2812V0.390625C51.5 0.175 51.276 0 51 0Z" fill="black"/>
<path d="M39 42.9688H15C14.724 42.9688 14.5 43.1434 14.5 43.3594C14.5 43.5754 14.724 43.75 15 43.75H39C39.276 43.75 39.5 43.5754 39.5 43.3594C39.5 43.1434 39.276 42.9688 39 42.9688Z" fill="black"/>
<path d="M13 33.9844H1C0.724 33.9844 0.5 34.159 0.5 34.375C0.5 34.591 0.724 34.7656 1 34.7656H13C13.276 34.7656 13.5 34.591 13.5 34.375C13.5 34.159 13.276 33.9844 13 33.9844Z" fill="black"/>
<path d="M39 31.6406H15C14.724 31.6406 14.5 31.8152 14.5 32.0312C14.5 32.2473 14.724 32.4219 15 32.4219H39C39.276 32.4219 39.5 32.2473 39.5 32.0312C39.5 31.8152 39.276 31.6406 39 31.6406Z" fill="black"/>
<path d="M34 33.2031H20C19.724 33.2031 19.5 33.3777 19.5 33.5938C19.5 33.8098 19.724 33.9844 20 33.9844H34C34.276 33.9844 34.5 33.8098 34.5 33.5938C34.5 33.3777 34.276 33.2031 34 33.2031Z" fill="black"/>
<path d="M10 29.2969H6C5.724 29.2969 5.5 29.4715 5.5 29.6875C5.5 29.9035 5.724 30.0781 6 30.0781H10C10.276 30.0781 10.5 29.9035 10.5 29.6875C10.5 29.4715 10.276 29.2969 10 29.2969Z" fill="black"/>
<path d="M63 14.4531H1C0.724 14.4531 0.5 14.6281 0.5 14.8438C0.5 15.0594 0.724 15.2344 1 15.2344H63C63.276 15.2344 63.5 15.0594 63.5 14.8438C63.5 14.6281 63.276 14.4531 63 14.4531Z" fill="black"/>
<path d="M31.5 0H22.5C22.224 0 22 0.175 22 0.390625V9.76562C22 9.98125 22.224 10.1562 22.5 10.1562H31.5C31.776 10.1562 32 9.98125 32 9.76562V0.390625C32 0.175 31.776 0 31.5 0ZM31 9.375H23V0.78125H31V9.375Z" fill="black"/>
<path d="M22.8779 9.50983C22.6969 9.34654 22.3809 9.32936 22.1724 9.47037L14.6724 14.5485C14.4639 14.6899 14.4414 14.9368 14.6219 15.0997C14.7204 15.1887 14.8599 15.2344 14.9999 15.2344C15.1159 15.2344 15.2329 15.2028 15.3274 15.1391L22.8274 10.061C23.0359 9.91959 23.0584 9.67272 22.8779 9.50983Z" fill="black"/>
<path d="M39.3274 14.5482L31.8274 9.47008C31.6189 9.32946 31.3029 9.34664 31.1219 9.50953C30.9414 9.67243 30.9639 9.9193 31.1724 10.0607L38.6724 15.1388C38.7669 15.2025 38.8834 15.2341 38.9994 15.2341C39.1389 15.2341 39.2784 15.1884 39.3779 15.0994C39.5584 14.9365 39.5359 14.6896 39.3274 14.5482Z" fill="black"/>
<path d="M2.5 14.8438C2.224 14.8438 2 15.0188 2 15.2344V26.1719C2 26.3879 2.224 26.5625 2.5 26.5625C2.776 26.5625 3 26.3879 3 26.1719V15.2344C3 15.0188 2.776 14.8438 2.5 14.8438Z" fill="black"/>
<path d="M61.5 14.8438C61.224 14.8438 61 15.0188 61 15.2344V26.1719C61 26.3879 61.224 26.5625 61.5 26.5625C61.776 26.5625 62 26.3879 62 26.1719V15.2344C62 15.0188 61.776 14.8438 61.5 14.8438Z" fill="black"/>
<path d="M12.5 36.3281C12.224 36.3281 12 36.5027 12 36.7188V39.8438C12 40.0598 12.224 40.2344 12.5 40.2344C12.776 40.2344 13 40.0598 13 39.8438V36.7188C13 36.5027 12.776 36.3281 12.5 36.3281Z" fill="black"/>
<path d="M12.5 9.375C12.224 9.375 12 9.55 12 9.76562V12.8906C12 13.1063 12.224 13.2812 12.5 13.2812C12.776 13.2812 13 13.1063 13 12.8906V9.76562C13 9.55 12.776 9.375 12.5 9.375Z" fill="black"/>
<path d="M48.5 29.2969C48.224 29.2969 48 29.4715 48 29.6875V32.8125C48 33.0285 48.224 33.2031 48.5 33.2031C48.776 33.2031 49 33.0285 49 32.8125V29.6875C49 29.4715 48.776 29.2969 48.5 29.2969Z" fill="black"/>
<path d="M53.5 29.2969C53.224 29.2969 53 29.4715 53 29.6875V32.8125C53 33.0285 53.224 33.2031 53.5 33.2031C53.776 33.2031 54 33.0285 54 32.8125V29.6875C54 29.4715 53.776 29.2969 53.5 29.2969Z" fill="black"/>
<path d="M48.5 9.375C48.224 9.375 48 9.55 48 9.76562V12.8906C48 13.1063 48.224 13.2812 48.5 13.2812C48.776 13.2812 49 13.1063 49 12.8906V9.76562C49 9.55 48.776 9.375 48.5 9.375Z" fill="black"/>
<path d="M53.5 9.375C53.224 9.375 53 9.55 53 9.76562V12.8906C53 13.1063 53.224 13.2812 53.5 13.2812C53.776 13.2812 54 13.1063 54 12.8906V9.76562C54 9.55 53.776 9.375 53.5 9.375Z" fill="black"/>
<path d="M22.5 1.17188H15C14.724 1.17188 14.5 1.34688 14.5 1.5625C14.5 1.77812 14.724 1.95312 15 1.95312H22.5C22.776 1.95312 23 1.77812 23 1.5625C23 1.34688 22.776 1.17188 22.5 1.17188Z" fill="black"/>
<path d="M39 1.17188H31.5C31.224 1.17188 31 1.34688 31 1.5625C31 1.77812 31.224 1.95312 31.5 1.95312H39C39.276 1.95312 39.5 1.77812 39.5 1.5625C39.5 1.34688 39.276 1.17188 39 1.17188Z" fill="black"/>
<path d="M34 35.1562H20C19.724 35.1562 19.5 35.3309 19.5 35.5469V41.0156C19.5 41.2316 19.724 41.4062 20 41.4062H34C34.276 41.4062 34.5 41.2316 34.5 41.0156V35.5469C34.5 35.3309 34.276 35.1562 34 35.1562ZM33.5 40.625H20.5V35.9375H33.5V40.625Z" fill="black"/>
<path d="M21.75 28.9062C21.061 28.9062 20.5 29.3441 20.5 29.8828C20.5 30.4215 21.061 30.8594 21.75 30.8594C22.439 30.8594 23 30.4215 23 29.8828C23 29.3441 22.439 28.9062 21.75 28.9062ZM21.75 30.0781C21.612 30.0781 21.5 29.9902 21.5 29.8828C21.5 29.7754 21.612 29.6875 21.75 29.6875C21.888 29.6875 22 29.7754 22 29.8828C22 29.9902 21.888 30.0781 21.75 30.0781Z" fill="black"/>
<path d="M32.25 28.9062C31.561 28.9062 31 29.3441 31 29.8828C31 30.4215 31.561 30.8594 32.25 30.8594C32.939 30.8594 33.5 30.4215 33.5 29.8828C33.5 29.3441 32.939 28.9062 32.25 28.9062ZM32.25 30.0781C32.112 30.0781 32 29.9902 32 29.8828C32 29.7754 32.112 29.6875 32.25 29.6875C32.388 29.6875 32.5 29.7754 32.5 29.8828C32.5 29.9902 32.388 30.0781 32.25 30.0781Z" fill="black"/>
<path d="M56.5 2.34375H54.5C54.224 2.34375 54 2.51875 54 2.73438C54 2.95 54.224 3.125 54.5 3.125H56.5C56.776 3.125 57 2.95 57 2.73438C57 2.51875 56.776 2.34375 56.5 2.34375Z" fill="black"/>
<path d="M60.5 2.34375H58.5C58.224 2.34375 58 2.51875 58 2.73438C58 2.95 58.224 3.125 58.5 3.125H60V8.20312C60 8.41875 60.224 8.59375 60.5 8.59375C60.776 8.59375 61 8.41875 61 8.20312V2.73438C61 2.51875 60.776 2.34375 60.5 2.34375Z" fill="black"/>
<path d="M3.5 43.3594C3.224 43.3594 3 43.534 3 43.75V47.6562C3 47.8723 3.224 48.0469 3.5 48.0469C3.776 48.0469 4 47.8723 4 47.6562V43.75C4 43.534 3.776 43.3594 3.5 43.3594Z" fill="black"/>
<path d="M3.5 40.2344C3.224 40.2344 3 40.409 3 40.625V41.7969C3 42.0129 3.224 42.1875 3.5 42.1875C3.776 42.1875 4 42.0129 4 41.7969V40.625C4 40.409 3.776 40.2344 3.5 40.2344Z" fill="black"/>
</svg>
