<svg width="50" height="34" viewBox="0 0 50 34" fill="none" xmlns="http://www.w3.org/2000/svg">
<path d="M6.25 31.0625H3.125C2.90938 31.0625 2.73438 31.2371 2.73438 31.4531V33.4062C2.73438 33.6223 2.90938 33.7969 3.125 33.7969H6.25C6.46563 33.7969 6.64062 33.6223 6.64062 33.4062V31.4531C6.64062 31.2371 6.46563 31.0625 6.25 31.0625ZM5.85938 33.0156H3.51562V31.8438H5.85938V33.0156Z" fill="black"/>
<path d="M46.875 31.0625H43.75C43.5344 31.0625 43.3594 31.2371 43.3594 31.4531V33.4062C43.3594 33.6223 43.5344 33.7969 43.75 33.7969H46.875C47.0906 33.7969 47.2656 33.6223 47.2656 33.4062V31.4531C47.2656 31.2371 47.0906 31.0625 46.875 31.0625ZM46.4844 33.0156H44.1406V31.8438H46.4844V33.0156Z" fill="black"/>
<path d="M49.6094 0.203125H0.390625C0.175 0.203125 0 0.377734 0 0.59375V31.4531C0 31.6691 0.175 31.8438 0.390625 31.8438H49.6094C49.825 31.8438 50 31.6691 50 31.4531V0.59375C50 0.377734 49.825 0.203125 49.6094 0.203125ZM49.2188 31.0625H0.78125V0.984375H49.2188V31.0625Z" fill="black"/>
<path d="M37.8906 20.9062H0.390625C0.175 20.9062 0 21.0809 0 21.2969C0 21.5129 0.175 21.6875 0.390625 21.6875H37.8906C38.1063 21.6875 38.2812 21.5129 38.2812 21.2969C38.2812 21.0809 38.1063 20.9062 37.8906 20.9062Z" fill="black"/>
<path d="M46.4844 20.9062H42.1875C41.9719 20.9062 41.7969 21.0809 41.7969 21.2969C41.7969 21.5129 41.9719 21.6875 42.1875 21.6875H46.4844C46.7 21.6875 46.875 21.5129 46.875 21.2969C46.875 21.0809 46.7 20.9062 46.4844 20.9062Z" fill="black"/>
<path d="M37.8906 10.75H0.390625C0.175 10.75 0 10.9246 0 11.1406C0 11.3566 0.175 11.5312 0.390625 11.5312H37.8906C38.1063 11.5312 38.2812 11.3566 38.2812 11.1406C38.2812 10.9246 38.1063 10.75 37.8906 10.75Z" fill="black"/>
<path d="M46.4844 10.75H42.1875C41.9719 10.75 41.7969 10.9246 41.7969 11.1406C41.7969 11.3566 41.9719 11.5312 42.1875 11.5312H46.4844C46.7 11.5312 46.875 11.3566 46.875 11.1406C46.875 10.9246 46.7 10.75 46.4844 10.75Z" fill="black"/>
<path d="M28.125 5.28125H21.875C21.6594 5.28125 21.4844 5.45586 21.4844 5.67188C21.4844 5.88789 21.6594 6.0625 21.875 6.0625H28.125C28.3406 6.0625 28.5156 5.88789 28.5156 5.67188C28.5156 5.45586 28.3406 5.28125 28.125 5.28125Z" fill="black"/>
<path d="M28.125 16.2188H21.875C21.6594 16.2188 21.4844 16.3934 21.4844 16.6094C21.4844 16.8254 21.6594 17 21.875 17H28.125C28.3406 17 28.5156 16.8254 28.5156 16.6094C28.5156 16.3934 28.3406 16.2188 28.125 16.2188Z" fill="black"/>
<path d="M28.125 26.375H21.875C21.6594 26.375 21.4844 26.5496 21.4844 26.7656C21.4844 26.9816 21.6594 27.1562 21.875 27.1562H28.125C28.3406 27.1562 28.5156 26.9816 28.5156 26.7656C28.5156 26.5496 28.3406 26.375 28.125 26.375Z" fill="black"/>
</svg>
