<svg width="50" height="24" viewBox="0 0 50 24" fill="none" xmlns="http://www.w3.org/2000/svg">
<path d="M49.2188 16.8828C49.2188 18.8359 47.9352 21.1797 46.0938 21.1797H4.6875C2.75273 21.1797 0.78125 19.2266 0.78125 17.2734H0C0 19.6172 2.32187 21.9609 4.6875 21.9609H46.0938C48.4305 21.9609 50 19.2266 50 16.8828H49.2188Z" fill="black"/>
<path d="M42.9688 0.0859375H7.8125C5.4793 0.0859375 3.125 1.17305 3.125 3.60156V7.50781H3.90625V3.60156C3.90625 1.71289 5.86797 0.867188 7.8125 0.867188H42.9688C45.0426 0.867188 46.0938 1.78711 46.0938 3.60156V7.50781H46.875V3.60156C46.875 1.36719 45.4512 0.0859375 42.9688 0.0859375Z" fill="black"/>
<path d="M4.6875 7.50781H3.125C0.542188 7.50781 0 8.56992 0 9.46094V17.2734H0.78125V9.46094C0.78125 8.6832 1.56992 8.28906 3.125 8.28906H4.6875C5.92891 8.28906 6.25 8.53008 6.25 9.46094V15.3203H7.03125V9.46094C7.03125 7.74453 5.90469 7.50781 4.6875 7.50781Z" fill="black"/>
<path d="M47.6562 7.50781H46.0938C43.5109 7.50781 42.9688 8.56992 42.9688 9.46094V15.3203H43.75V9.46094C43.75 8.6832 44.5387 8.28906 46.0938 8.28906H47.6562C48.8977 8.28906 49.2188 8.53008 49.2188 9.46094V17.2734H50V9.46094C50 7.74453 48.8734 7.50781 47.6562 7.50781Z" fill="black"/>
<path d="M43.75 14.5391H7.03125V15.3203H43.75V14.5391Z" fill="black"/>
<path d="M6.25 21.1797V23.1328H5.07812V21.1797H4.29688V23.9141H7.03125V21.1797H6.25Z" fill="black"/>
<path d="M44.9219 21.1797V23.1328H43.75V21.1797H42.9688V23.9141H45.7031V21.1797H44.9219Z" fill="black"/>
<path d="M8.59375 17.6641C8.02422 17.6641 7.03125 16.4227 7.03125 15.7109V15.3203H6.25V15.7109C6.25 16.7906 7.50703 18.4453 8.59375 18.4453H36.3281V17.6641H8.59375Z" fill="black"/>
<path d="M42.9688 15.3203V15.7109C42.9688 16.5266 42.6715 17.6641 42.1875 17.6641H39.8438V18.4453H42.1875C43.334 18.4453 43.75 16.8102 43.75 15.7109V15.3203H42.9688Z" fill="black"/>
<path d="M5.07812 3.60146V5.55459H5.85938V3.60146C5.85938 3.17061 6.02305 2.89482 6.48477 2.54756L6.01523 1.92334C5.55156 2.27178 5.07812 2.74404 5.07812 3.60146Z" fill="black"/>
<path d="M42.9688 2.03906H41.0156V2.82031H42.9688C44.2953 2.82031 44.5312 3.025 44.5312 3.60156H45.3125C45.3125 2.03906 43.7879 2.03906 42.9688 2.03906Z" fill="black"/>
<path d="M39.0625 2.03906H37.8906V2.82031H39.0625V2.03906Z" fill="black"/>
</svg>
