<svg width="50" height="28" viewBox="0 0 50 28" fill="none" xmlns="http://www.w3.org/2000/svg">
<path d="M49.6094 0.230469H0.390625C0.175 0.230469 0 0.405469 0 0.621094V2.18359C0 2.39922 0.175 2.57422 0.390625 2.57422H49.6094C49.825 2.57422 50 2.39922 50 2.18359V0.621094C50 0.405469 49.825 0.230469 49.6094 0.230469ZM49.2188 1.79297H0.78125V1.01172H49.2188V1.79297Z" fill="black"/>
<path d="M25.7812 4.91797C25.5656 4.91797 25.3906 5.09297 25.3906 5.30859V26.5977C25.3906 26.8129 25.2152 26.9883 25 26.9883C24.7848 26.9883 24.6094 26.8129 24.6094 26.5977V5.30859C24.6094 5.09297 24.4344 4.91797 24.2188 4.91797C24.0031 4.91797 23.8281 5.09297 23.8281 5.30859V26.5977C23.8281 27.2437 24.3539 27.7695 25 27.7695C25.6461 27.7695 26.1719 27.2437 26.1719 26.5977V5.30859C26.1719 5.09297 25.9969 4.91797 25.7812 4.91797Z" fill="black"/>
<path d="M23.8281 17.6133C21.459 17.6133 19.5312 19.541 19.5312 21.9102C19.5312 24.7102 17.2531 26.9883 14.4531 26.9883C14.2379 26.9883 14.0625 26.8129 14.0625 26.5977C14.0625 26.3824 14.2379 26.207 14.4531 26.207C16.8223 26.207 18.75 24.2793 18.75 21.9102C18.75 19.1102 21.0281 16.832 23.8281 16.832C24.0437 16.832 24.2188 16.657 24.2188 16.4414C24.2188 16.2258 24.0437 16.0508 23.8281 16.0508C20.5973 16.0508 17.9688 18.6793 17.9688 21.9102C17.9688 23.8484 16.3914 25.4258 14.4531 25.4258C13.807 25.4258 13.2812 25.9516 13.2812 26.5977C13.2812 27.2437 13.807 27.7695 14.4531 27.7695C17.684 27.7695 20.3125 25.141 20.3125 21.9102C20.3125 19.9719 21.8898 18.3945 23.8281 18.3945C24.0437 18.3945 24.2188 18.2195 24.2188 18.0039C24.2188 17.7883 24.0437 17.6133 23.8281 17.6133Z" fill="black"/>
<path d="M35.5469 25.4258C33.6086 25.4258 32.0312 23.8484 32.0312 21.9102C32.0312 18.6793 29.4027 16.0508 26.1719 16.0508C25.9563 16.0508 25.7812 16.2258 25.7812 16.4414C25.7812 16.657 25.9563 16.832 26.1719 16.832C28.9719 16.832 31.25 19.1102 31.25 21.9102C31.25 24.2793 33.1777 26.207 35.5469 26.207C35.7621 26.207 35.9375 26.3824 35.9375 26.5977C35.9375 26.8129 35.7621 26.9883 35.5469 26.9883C32.7469 26.9883 30.4688 24.7102 30.4688 21.9102C30.4688 19.541 28.541 17.6133 26.1719 17.6133C25.9563 17.6133 25.7812 17.7883 25.7812 18.0039C25.7812 18.2195 25.9563 18.3945 26.1719 18.3945C28.1102 18.3945 29.6875 19.9719 29.6875 21.9102C29.6875 25.141 32.316 27.7695 35.5469 27.7695C36.193 27.7695 36.7188 27.2437 36.7188 26.5977C36.7188 25.9516 36.193 25.4258 35.5469 25.4258Z" fill="black"/>
<path d="M46.0938 1.79297C45.8781 1.79297 45.7031 1.96797 45.7031 2.18359V4.91797H4.29688V2.18359C4.29688 1.96797 4.12187 1.79297 3.90625 1.79297C3.69063 1.79297 3.51562 1.96797 3.51562 2.18359V5.30859C3.51562 5.52422 3.69063 5.69922 3.90625 5.69922H46.0938C46.3094 5.69922 46.4844 5.52422 46.4844 5.30859V2.18359C46.4844 1.96797 46.3094 1.79297 46.0938 1.79297Z" fill="black"/>
<path d="M44.1406 3.35547H39.0625C38.8469 3.35547 38.6719 3.53047 38.6719 3.74609C38.6719 3.96172 38.8469 4.13672 39.0625 4.13672H44.1406C44.3562 4.13672 44.5312 3.96172 44.5312 3.74609C44.5312 3.53047 44.3562 3.35547 44.1406 3.35547Z" fill="black"/>
<path d="M37.1094 3.35547H35.9375C35.7219 3.35547 35.5469 3.53047 35.5469 3.74609C35.5469 3.96172 35.7219 4.13672 35.9375 4.13672H37.1094C37.325 4.13672 37.5 3.96172 37.5 3.74609C37.5 3.53047 37.325 3.35547 37.1094 3.35547Z" fill="black"/>
</svg>
