<svg width="20" height="50" viewBox="0 0 20 50" fill="none" xmlns="http://www.w3.org/2000/svg">
<path d="M16.9244 46.8821H3.42669C2.04195 46.8821 0.827148 48.1569 0.827148 49.6102C0.827148 49.8254 1.00175 50 1.21688 50H19.1334C19.3486 50 19.5232 49.8254 19.5232 49.6102C19.5232 48.1569 18.3088 46.8821 16.9244 46.8821ZM1.65105 49.2205C1.82994 48.4223 2.53068 47.6616 3.42669 47.6616H16.9244C17.8196 47.6616 18.5208 48.4223 18.6993 49.2205H1.65105Z" fill="black"/>
<path d="M10.7798 3.62143C10.5647 3.62143 10.3901 3.79603 10.3901 4.01116V46.8821H9.22088V3.62143C9.22088 3.40629 9.04628 3.23169 8.83114 3.23169C8.61601 3.23169 8.44141 3.40629 8.44141 3.62143V47.2718C8.44141 47.487 8.61601 47.6616 8.83114 47.6616H10.7798C10.995 47.6616 11.1696 47.487 11.1696 47.2718V4.01116C11.1696 3.79603 10.995 3.62143 10.7798 3.62143Z" fill="black"/>
<path d="M10.0252 0C8.85799 0 7.9082 0.949397 7.9082 2.11666C7.9082 3.28391 8.85799 4.23331 10.0252 4.23331C11.1925 4.23331 12.1415 3.28391 12.1415 2.11666C12.1415 0.949397 11.1921 0 10.0252 0ZM10.0252 3.45423C9.28787 3.45423 8.68767 2.85443 8.68767 2.11705C8.68767 1.37967 9.28787 0.779862 10.0252 0.779862C10.7626 0.779862 11.362 1.37967 11.362 2.11705C11.362 2.85443 10.7622 3.45423 10.0252 3.45423Z" fill="black"/>
<path d="M17.7012 6.43359C16.9112 6.43359 16.2686 7.07666 16.2686 7.86665C16.2686 8.65665 16.9112 9.29932 17.7012 9.29932C18.4912 9.29932 19.1339 8.65665 19.1339 7.86665C19.1339 7.07627 18.4912 6.43359 17.7012 6.43359ZM17.7012 8.52024C17.3411 8.52024 17.048 8.22716 17.048 7.86704C17.048 7.50654 17.3411 7.21346 17.7012 7.21346C18.0613 7.21346 18.3544 7.50654 18.3544 7.86704C18.3544 8.22716 18.0613 8.52024 17.7012 8.52024Z" fill="black"/>
<path d="M1.90845 6.43359C1.11885 6.43359 0.476562 7.07666 0.476562 7.86665C0.476562 8.65665 1.11885 9.29932 1.90845 9.29932C2.69884 9.29932 3.34191 8.65665 3.34191 7.86665C3.34191 7.07627 2.69884 6.43359 1.90845 6.43359ZM1.90845 8.52024C1.54873 8.52024 1.25604 8.22716 1.25604 7.86704C1.25604 7.50654 1.54873 7.21346 1.90845 7.21346C2.26935 7.21346 2.56243 7.50654 2.56243 7.86704C2.56243 8.22716 2.26896 8.52024 1.90845 8.52024Z" fill="black"/>
<path d="M8.74592 15.215C5.48656 14.7766 3.02849 11.9619 3.02849 8.66708C3.02849 8.45195 2.85389 8.27734 2.63876 8.27734C2.42363 8.27734 2.24902 8.45195 2.24902 8.66708C2.24902 12.3501 4.99744 15.4972 8.64225 15.9875C8.66018 15.9898 8.67771 15.991 8.69486 15.991C8.887 15.991 9.0542 15.8491 9.08031 15.6535C9.10876 15.4399 8.9591 15.2439 8.74592 15.215Z" fill="black"/>
<path d="M17.0231 8.27686C16.808 8.27686 16.6334 8.45146 16.6334 8.66659C16.6334 11.961 14.1753 14.7761 10.916 15.2145C10.7028 15.2434 10.5531 15.4398 10.5816 15.653C10.6081 15.8486 10.7753 15.9909 10.9674 15.9909C10.9846 15.9909 11.0021 15.9897 11.0197 15.987C14.6645 15.4967 17.4129 12.3496 17.4129 8.66659C17.4129 8.45146 17.2383 8.27686 17.0231 8.27686Z" fill="black"/>
<path d="M8.73775 16.6652C4.70476 16.2131 1.66326 12.8072 1.66326 8.74227C1.66326 8.52714 1.48866 8.35254 1.27352 8.35254C1.05839 8.35254 0.883789 8.52714 0.883789 8.74227C0.883789 13.2044 4.22305 16.9435 8.65122 17.4396C8.66603 17.4412 8.68045 17.442 8.69526 17.442C8.89091 17.442 9.05967 17.2946 9.08149 17.0959C9.10566 16.8819 8.95171 16.6894 8.73775 16.6652Z" fill="black"/>
<path d="M18.3876 8.35205C18.1725 8.35205 17.9979 8.52665 17.9979 8.74179C17.9979 12.8071 14.9568 16.213 10.9234 16.6647C10.7094 16.6889 10.5555 16.8814 10.5796 17.0954C10.6019 17.2949 10.7706 17.4419 10.9663 17.4419C10.9811 17.4419 10.9955 17.4411 11.0099 17.4391C15.4381 16.943 18.7773 13.2043 18.7773 8.74179C18.7773 8.52665 18.6027 8.35205 18.3876 8.35205Z" fill="black"/>
<path d="M17.7012 19.083C16.9112 19.083 16.2686 19.7261 16.2686 20.5161C16.2686 21.3061 16.9112 21.9487 17.7012 21.9487C18.4912 21.9487 19.1339 21.3061 19.1339 20.5161C19.1339 19.7257 18.4912 19.083 17.7012 19.083ZM17.7012 21.1697C17.3411 21.1697 17.048 20.8766 17.048 20.5165C17.048 20.1559 17.3411 19.8629 17.7012 19.8629C18.0613 19.8629 18.3544 20.1559 18.3544 20.5165C18.3544 20.8766 18.0613 21.1697 17.7012 21.1697Z" fill="black"/>
<path d="M1.90845 19.083C1.11885 19.083 0.476562 19.7261 0.476562 20.5161C0.476562 21.3061 1.11885 21.9487 1.90845 21.9487C2.69884 21.9487 3.34191 21.3061 3.34191 20.5161C3.34191 19.7257 2.69884 19.083 1.90845 19.083ZM1.90845 21.1697C1.54873 21.1697 1.25604 20.8766 1.25604 20.5165C1.25604 20.1559 1.54873 19.8629 1.90845 19.8629C2.26935 19.8629 2.56243 20.1559 2.56243 20.5165C2.56243 20.8766 2.26896 21.1697 1.90845 21.1697Z" fill="black"/>
<path d="M8.74592 27.864C5.48656 27.4259 3.02849 24.6112 3.02849 21.316C3.02849 21.1009 2.85389 20.9263 2.63876 20.9263C2.42363 20.9263 2.24902 21.1009 2.24902 21.316C2.24902 24.9994 4.99744 28.1465 8.64225 28.6364C8.66018 28.6388 8.67771 28.6399 8.69486 28.6399C8.887 28.6399 9.0542 28.4981 9.08031 28.3024C9.10876 28.0888 8.9591 27.8928 8.74592 27.864Z" fill="black"/>
<path d="M17.023 20.9263C16.8078 20.9263 16.6332 21.1009 16.6332 21.316C16.6332 24.6108 14.1752 27.4259 10.915 27.864C10.7018 27.8928 10.5522 28.0892 10.5806 28.3024C10.6071 28.4981 10.7743 28.6403 10.9665 28.6403C10.9836 28.6403 11.0011 28.6391 11.0187 28.6364C14.6639 28.1465 17.4127 24.9998 17.4127 21.316C17.4127 21.1009 17.2381 20.9263 17.023 20.9263Z" fill="black"/>
<path d="M8.73775 29.3144C4.70476 28.8623 1.66326 25.4564 1.66326 21.3914C1.66326 21.1763 1.48866 21.0017 1.27352 21.0017C1.05839 21.0017 0.883789 21.1763 0.883789 21.3914C0.883789 25.8535 4.22305 29.5927 8.65122 30.0888C8.66603 30.0903 8.68045 30.0911 8.69526 30.0911C8.89091 30.0911 9.05967 29.9442 9.08149 29.745C9.10566 29.5311 8.95171 29.3385 8.73775 29.3144Z" fill="black"/>
<path d="M18.3876 21.0015C18.1725 21.0015 17.9979 21.1761 17.9979 21.3912C17.9979 25.4565 14.9568 28.8624 10.9234 29.3141C10.7094 29.3383 10.5555 29.5308 10.5796 29.7448C10.6019 29.9443 10.7706 30.0913 10.9663 30.0913C10.9811 30.0913 10.9955 30.0905 11.0099 30.0885C15.4381 29.5924 18.7773 25.8537 18.7773 21.3912C18.7773 21.1761 18.6027 21.0015 18.3876 21.0015Z" fill="black"/>
</svg>
